<?xml version="1.0" encoding="iso-8859-1"?>
<!-- Uploaded to: SVG Repo, www.svgrepo.com, Generator: SVG Repo Mixer Tools -->
<svg version="1.1" id="Layer_1" xmlns="http://www.w3.org/2000/svg" xmlns:xlink="http://www.w3.org/1999/xlink" 
	 viewBox="0 0 512 512" xml:space="preserve">
<path style="fill:#FAEDE3;" d="M281.612,201.486c0,14.189-11.503,25.69-25.691,25.69c-14.185,0-25.689-11.502-25.689-25.69H281.612z
	"/>
<path style="fill:#FFD41D;" d="M302.099,203.804l-20.487-2.319c0,14.189-11.503,25.69-25.691,25.69
	c-14.185,0-25.689-11.502-25.689-25.69l-20.488,2.319c0,22.95-8.801,45.687-17.607,56.52v71.896h127.572v-71.896
	C310.902,249.491,302.099,226.754,302.099,203.804z"/>
<g>
	<path style="fill:#D50707;" d="M272.033,456.764v32.833c0,6.618,5.363,11.98,11.98,11.98h61.095c6.616,0,11.98-5.363,11.98-11.98
		c0-3.195-0.4-32.833-32.845-32.833H272.033z"/>
	<path style="fill:#D50707;" d="M239.765,456.745v32.85c0,6.618-5.366,11.984-11.984,11.984h-61.124
		c-6.62,0-11.985-5.366-11.985-11.984c0-3.197,0.399-32.85,32.859-32.85H239.765z"/>
</g>
<g>
	<rect x="209.592" y="424.791" style="fill:#FFE5D1;" width="30.175" height="31.964"/>
	<rect x="272.035" y="424.791" style="fill:#FFE5D1;" width="30.175" height="31.964"/>
</g>
<path style="fill:#0084FF;" d="M192.135,332.219v92.576h47.687v-47.307c0-8.89,7.207-16.098,16.097-16.098l0,0
	c8.892,0,16.099,7.208,16.099,16.098v47.307h47.688v-92.576L192.135,332.219L192.135,332.219z"/>
<g>
	<g>
		<path style="fill:#FFE5D1;" d="M204.068,195.669l-84.997,84.997c-6.784,6.783-6.784,17.78,0,24.561
			c6.783,6.783,17.779,6.783,24.563,0l62.116-62.116L204.068,195.669z"/>
		<path style="fill:#FFE5D1;" d="M308.925,245.863l59.441,59.444c6.785,6.783,17.781,6.783,24.563,0
			c6.784-6.782,6.784-17.779,0-24.561l-88.626-88.627L308.925,245.863z"/>
	</g>
	<path style="fill:#FFE5D1;" d="M366.402,107.845c0-10.928-6.765-19.792-15.161-19.962c-9.212-44.229-48.405-77.46-95.365-77.46
		c-46.964,0-86.156,33.233-95.366,77.466c-8.354,0.231-15.07,9.065-15.07,19.955c0,10.89,6.716,19.723,15.07,19.954
		c9.211,44.232,48.402,77.466,95.366,77.466c46.961,0,86.153-33.231,95.365-77.459C359.637,127.638,366.402,118.772,366.402,107.845
		z"/>
</g>
<path style="fill:#BC6F45;" d="M255.876,10.423c-43.139,0-79.7,28.049-92.513,66.896c11.336,8.057,25.186,12.81,40.15,12.81
	c20.906,0,39.636-9.254,52.361-23.872c12.726,14.618,31.456,23.872,52.36,23.872c14.966,0,28.816-4.754,40.153-12.812
	C335.575,38.472,299.015,10.423,255.876,10.423z"/>
<path d="M255.961,307.997c-5.757,0-10.423-4.667-10.423-10.423v-0.497c0-5.755,4.666-10.423,10.423-10.423
	s10.423,4.667,10.423,10.423v0.497C266.384,303.329,261.718,307.997,255.961,307.997z"/>
<path d="M221.193,133.396c-7.009,0-12.711-6.009-12.711-13.394s5.702-13.394,12.711-13.394c7.008,0,12.71,6.009,12.71,13.394
	C233.903,127.388,228.201,133.396,221.193,133.396z"/>
<path d="M290.578,133.396c-7.009,0-12.712-6.009-12.712-13.394s5.702-13.394,12.712-13.394c7.007,0,12.707,6.009,12.707,13.394
	C303.286,127.388,297.585,133.396,290.578,133.396z"/>
<path d="M255.921,168.194c-6.211,0-12.021-1.353-16.36-3.807c-5.01-2.835-6.774-9.194-3.938-14.204
	c2.835-5.011,9.196-6.774,14.204-3.938c0.675,0.381,2.817,1.105,6.094,1.105s5.418-0.721,6.092-1.104
	c5.008-2.838,11.368-1.074,14.204,3.935c2.836,5.01,1.074,11.369-3.936,14.205C267.945,166.841,262.134,168.194,255.921,168.194z"/>
<path d="M400.3,273.375l-76.714-76.715c-1.036-1.035-2.238-1.804-3.518-2.314c18.959-14.07,33.308-34.241,39.809-57.915
	c9.965-4.206,16.947-15.33,16.947-28.588c0-13.256-6.982-24.381-16.947-28.587C347.164,32.951,304.455,0,255.876,0
	c-48.597,0-91.319,32.98-104.016,79.314c-9.905,4.249-16.843,15.355-16.843,28.53c0,13.173,6.939,24.28,16.843,28.53
	c6.501,23.723,20.881,43.931,39.884,58.016c-1.239,0.508-2.4,1.263-3.407,2.27l-76.634,76.635
	c-5.25,5.249-8.142,12.228-8.142,19.651s2.891,14.402,8.141,19.651c5.418,5.418,12.533,8.127,19.651,8.126
	c7.116,0,14.234-2.709,19.653-8.126l30.707-30.707v142.904c0,5.757,4.666,10.423,10.423,10.423h7.032v11.102h-11.636
	c-29.899,0-43.282,21.734-43.282,43.272c0,12.355,10.053,22.407,22.408,22.407h61.124c12.355,0,22.407-10.052,22.407-22.407
	l0.057-112.104c0-3.13,2.545-5.675,5.674-5.675c3.13,0,5.676,2.545,5.676,5.675l0.015,112.109c0,12.353,10.05,22.403,22.403,22.403
	h61.095c12.353,0,22.403-10.051,22.403-22.403c0-21.53-13.379-43.256-43.268-43.256h-11.613v-11.123h7.076
	c5.757,0,10.423-4.666,10.423-10.423V281.812l30.867,30.867c5.419,5.417,12.536,8.126,19.651,8.126
	c7.117,0,14.233-2.709,19.65-8.126c5.251-5.249,8.141-12.228,8.141-19.651S405.549,278.624,400.3,273.375z M255.876,20.846
	c34.922,0,66.07,21.111,79.699,52.134c-8.405,4.413-17.742,6.726-27.339,6.726c-17.053,0-33.272-7.397-44.499-20.294
	c-1.979-2.274-4.847-3.579-7.861-3.579c-3.015,0-5.883,1.306-7.862,3.58c-11.226,12.896-27.445,20.293-44.5,20.293
	c-9.614,0-18.935-2.314-27.336-6.728C189.808,41.956,220.954,20.846,255.876,20.846z M189.765,244.525
	c-0.393,0.295-0.776,0.609-1.134,0.967l-52.364,52.364c-2.71,2.709-7.116,2.711-9.827,0c-1.311-1.311-2.035-3.055-2.035-4.909
	s0.722-3.599,2.036-4.911l71.97-71.97C196.882,226.756,193.571,236.853,189.765,244.525z M229.343,489.593
	c0,0.861-0.7,1.561-1.561,1.561h-61.124c-0.862,0-1.562-0.7-1.562-1.561c0-3.396,0.797-8.522,3.035-12.727
	c3.473-6.527,9.819-9.684,19.401-9.684h41.811v22.411H229.343z M229.343,446.322h-9.329v-11.102h9.329V446.322z M255.92,350.968
	c-14.623,0-26.52,11.898-26.52,26.521v36.884h-26.842v-71.731h106.726v71.731h-26.843v-36.884
	C282.443,362.865,270.545,350.968,255.92,350.968z M249.877,215.501c1.99,0.112,3.988,0.189,6,0.189c2.047,0,4.078-0.08,6.102-0.196
	c-1.858,0.807-3.905,1.26-6.059,1.26C253.774,216.753,251.731,216.303,249.877,215.501z M255.961,273.781
	c5.757,0,10.423-4.667,10.423-10.423v-27.311l0,0c11.178-3.392,20.083-12.062,23.787-23.103l1.924,0.218
	c1.843,20.752,9.464,39.552,17.189,50.627v58.008H202.558v-58.008c7.724-11.074,15.345-29.874,17.187-50.627l1.925-0.218
	c3.713,11.068,12.651,19.756,23.868,23.129v27.285C245.539,269.113,250.205,273.781,255.961,273.781z M291.786,435.218v11.118
	h-9.329v-11.118H291.786z M324.244,467.187c9.576,0,15.918,3.171,19.388,9.692c2.237,4.204,3.034,9.325,3.034,12.718
	c0,0.859-0.699,1.557-1.557,1.557h-61.095c-0.859,0-1.557-0.698-1.557-1.557v-22.41H324.244z M255.876,194.843
	c-41.001,0-76.817-29.089-85.163-69.168c-0.984-4.728-5.087-8.16-9.914-8.294c-1.966-0.055-4.937-3.887-4.937-9.536
	c0-5.651,2.971-9.483,4.935-9.536c3.743-0.103,7.043-2.193,8.799-5.329c10.552,4.972,22.07,7.572,33.917,7.572
	c19.359,0,37.918-7.035,52.361-19.595c14.444,12.559,33.004,19.595,52.36,19.595c11.828,0,23.364-2.595,33.925-7.569
	c1.771,3.152,5.103,5.245,8.87,5.321c1.971,0.04,4.95,3.866,4.95,9.541s-2.978,9.501-4.948,9.541
	c-4.858,0.098-9.003,3.54-9.994,8.296C332.691,165.756,296.875,194.843,255.876,194.843z M385.56,297.938
	c-2.708,2.709-7.116,2.707-9.823,0l-51.999-52.001c-0.502-0.502-1.045-0.942-1.616-1.322c-3.837-7.706-7.176-17.877-8.707-28.645
	l72.147,72.147c1.312,1.312,2.035,3.057,2.035,4.911C387.595,294.882,386.873,296.625,385.56,297.938z"/>
</svg>