<?xml version="1.0" encoding="UTF-8"?>
<svg xmlns="http://www.w3.org/2000/svg" xmlns:xlink="http://www.w3.org/1999/xlink" width="2161.1" height="3887.71" viewBox="0 0 2161.1 3887.71">
<defs>
<clipPath id="clip-0">
<path clip-rule="nonzero" d="M 857 1447 L 1102 1447 L 1102 1598 L 857 1598 Z M 857 1447 "/>
</clipPath>
<clipPath id="clip-1">
<path clip-rule="nonzero" d="M 981.523438 1597.699219 C 980.460938 1597.699219 979.382812 1597.691406 978.3125 1597.679688 C 910.792969 1596.609375 856.589844 1562.199219 857.242188 1520.808594 C 857.886719 1480.089844 911.414062 1447.789062 977.46875 1447.789062 C 978.53125 1447.789062 979.609375 1447.800781 980.679688 1447.820312 C 1048.199219 1448.878906 1102.398438 1483.300781 1101.75 1524.679688 C 1101.109375 1565.398438 1047.578125 1597.699219 981.523438 1597.699219 "/>
</clipPath>
<clipPath id="clip-2">
<path clip-rule="nonzero" d="M 981.523438 1597.699219 C 980.460938 1597.699219 979.382812 1597.691406 978.3125 1597.679688 C 910.792969 1596.609375 856.589844 1562.199219 857.242188 1520.808594 C 857.886719 1480.089844 911.414062 1447.789062 977.46875 1447.789062 C 978.53125 1447.789062 979.609375 1447.800781 980.679688 1447.820312 C 1048.199219 1448.878906 1102.398438 1483.300781 1101.75 1524.679688 C 1101.109375 1565.398438 1047.578125 1597.699219 981.523438 1597.699219 "/>
</clipPath>
<radialGradient id="radial-pattern-0" gradientUnits="userSpaceOnUse" cx="0" cy="0" fx="0" fy="0" r="78.419183" gradientTransform="matrix(1.290794, 0.0773813, -0.0423004, 0.705622, 979.496, 1522.75)">
<stop offset="0" stop-color="rgb(95.684814%, 59.341431%, 48.753357%)" stop-opacity="1"/>
<stop offset="0.015625" stop-color="rgb(95.684814%, 59.538269%, 49.024963%)" stop-opacity="1"/>
<stop offset="0.0429688" stop-color="rgb(95.684814%, 59.631348%, 49.28894%)" stop-opacity="1"/>
<stop offset="0.0546875" stop-color="rgb(95.684814%, 59.80072%, 49.411011%)" stop-opacity="1"/>
<stop offset="0.0664062" stop-color="rgb(95.803833%, 60.092163%, 49.530029%)" stop-opacity="1"/>
<stop offset="0.078125" stop-color="rgb(96.000671%, 60.38208%, 49.794006%)" stop-opacity="1"/>
<stop offset="0.0898438" stop-color="rgb(96.076965%, 60.673523%, 50.067139%)" stop-opacity="1"/>
<stop offset="0.101562" stop-color="rgb(96.076965%, 60.964966%, 50.195312%)" stop-opacity="1"/>
<stop offset="0.113281" stop-color="rgb(96.076965%, 61.256409%, 50.195312%)" stop-opacity="1"/>
<stop offset="0.125" stop-color="rgb(96.076965%, 61.483765%, 50.257874%)" stop-opacity="1"/>
<stop offset="0.136719" stop-color="rgb(96.076965%, 61.579895%, 50.465393%)" stop-opacity="1"/>
<stop offset="0.148438" stop-color="rgb(96.076965%, 61.737061%, 50.756836%)" stop-opacity="1"/>
<stop offset="0.160156" stop-color="rgb(96.076965%, 62.028503%, 50.941467%)" stop-opacity="1"/>
<stop offset="0.171875" stop-color="rgb(96.133423%, 62.31842%, 51.036072%)" stop-opacity="1"/>
<stop offset="0.183594" stop-color="rgb(96.330261%, 62.609863%, 51.237488%)" stop-opacity="1"/>
<stop offset="0.195312" stop-color="rgb(96.469116%, 62.945557%, 51.573181%)" stop-opacity="1"/>
<stop offset="0.21875" stop-color="rgb(96.469116%, 63.186646%, 51.81427%)" stop-opacity="1"/>
<stop offset="0.230469" stop-color="rgb(96.469116%, 63.381958%, 52.009583%)" stop-opacity="1"/>
<stop offset="0.242188" stop-color="rgb(96.469116%, 63.673401%, 52.301025%)" stop-opacity="1"/>
<stop offset="0.253906" stop-color="rgb(96.469116%, 63.916016%, 52.497864%)" stop-opacity="1"/>
<stop offset="0.261719" stop-color="rgb(96.469116%, 64.109802%, 52.548218%)" stop-opacity="1"/>
<stop offset="0.269531" stop-color="rgb(96.469116%, 64.303589%, 52.592468%)" stop-opacity="1"/>
<stop offset="0.277344" stop-color="rgb(96.469116%, 64.498901%, 52.732849%)" stop-opacity="1"/>
<stop offset="0.285156" stop-color="rgb(96.511841%, 64.692688%, 52.928162%)" stop-opacity="1"/>
<stop offset="0.292969" stop-color="rgb(96.707153%, 64.942932%, 53.178406%)" stop-opacity="1"/>
<stop offset="0.3125" stop-color="rgb(96.861267%, 65.097046%, 53.33252%)" stop-opacity="1"/>
<stop offset="0.320312" stop-color="rgb(96.861267%, 65.270996%, 53.419495%)" stop-opacity="1"/>
<stop offset="0.328125" stop-color="rgb(96.861267%, 65.638733%, 53.6026%)" stop-opacity="1"/>
<stop offset="0.335938" stop-color="rgb(96.861267%, 65.940857%, 53.796387%)" stop-opacity="1"/>
<stop offset="0.34375" stop-color="rgb(96.861267%, 66.148376%, 53.990173%)" stop-opacity="1"/>
<stop offset="0.351562" stop-color="rgb(96.861267%, 66.342163%, 54.101562%)" stop-opacity="1"/>
<stop offset="0.359375" stop-color="rgb(96.861267%, 66.552734%, 54.246521%)" stop-opacity="1"/>
<stop offset="0.378906" stop-color="rgb(96.987915%, 66.792297%, 54.441833%)" stop-opacity="1"/>
<stop offset="0.394531" stop-color="rgb(97.184753%, 67.114258%, 54.634094%)" stop-opacity="1"/>
<stop offset="0.410156" stop-color="rgb(97.253418%, 67.501831%, 54.953003%)" stop-opacity="1"/>
<stop offset="0.425781" stop-color="rgb(97.253418%, 67.89093%, 55.220032%)" stop-opacity="1"/>
<stop offset="0.441406" stop-color="rgb(97.253418%, 68.278503%, 55.412292%)" stop-opacity="1"/>
<stop offset="0.457031" stop-color="rgb(97.253418%, 68.666077%, 55.725098%)" stop-opacity="1"/>
<stop offset="0.472656" stop-color="rgb(97.253418%, 69.055176%, 55.99823%)" stop-opacity="1"/>
<stop offset="0.488281" stop-color="rgb(97.366333%, 69.442749%, 56.190491%)" stop-opacity="1"/>
<stop offset="0.503906" stop-color="rgb(97.563171%, 69.78302%, 56.448364%)" stop-opacity="1"/>
<stop offset="0.515625" stop-color="rgb(97.645569%, 70.082092%, 56.738281%)" stop-opacity="1"/>
<stop offset="0.542969" stop-color="rgb(97.645569%, 70.332336%, 56.930542%)" stop-opacity="1"/>
<stop offset="0.546875" stop-color="rgb(97.645569%, 70.526123%, 57.026672%)" stop-opacity="1"/>
<stop offset="0.550781" stop-color="rgb(97.645569%, 70.71991%, 57.124329%)" stop-opacity="1"/>
<stop offset="0.554688" stop-color="rgb(97.645569%, 71.003723%, 57.318115%)" stop-opacity="1"/>
<stop offset="0.566406" stop-color="rgb(97.645569%, 71.334839%, 57.609558%)" stop-opacity="1"/>
<stop offset="0.578125" stop-color="rgb(97.650146%, 71.626282%, 57.901001%)" stop-opacity="1"/>
<stop offset="0.589844" stop-color="rgb(97.845459%, 71.963501%, 58.23822%)" stop-opacity="1"/>
<stop offset="0.613281" stop-color="rgb(98.03772%, 72.349548%, 58.624268%)" stop-opacity="1"/>
<stop offset="0.636719" stop-color="rgb(98.03772%, 72.735596%, 58.91571%)" stop-opacity="1"/>
<stop offset="0.644531" stop-color="rgb(98.03772%, 73.121643%, 59.109497%)" stop-opacity="1"/>
<stop offset="0.652344" stop-color="rgb(98.03772%, 73.417664%, 59.210205%)" stop-opacity="1"/>
<stop offset="0.660156" stop-color="rgb(98.03772%, 73.614502%, 59.214783%)" stop-opacity="1"/>
<stop offset="0.667969" stop-color="rgb(98.03772%, 73.808289%, 59.30481%)" stop-opacity="1"/>
<stop offset="0.675781" stop-color="rgb(98.03772%, 74.003601%, 59.492493%)" stop-opacity="1"/>
<stop offset="0.683594" stop-color="rgb(98.126221%, 74.108887%, 59.687805%)" stop-opacity="1"/>
<stop offset="0.691406" stop-color="rgb(98.323059%, 74.290466%, 59.892273%)" stop-opacity="1"/>
<stop offset="0.707031" stop-color="rgb(98.429871%, 74.658203%, 59.999084%)" stop-opacity="1"/>
<stop offset="0.714844" stop-color="rgb(98.429871%, 74.961853%, 60.168457%)" stop-opacity="1"/>
<stop offset="0.722656" stop-color="rgb(98.429871%, 75.167847%, 60.533142%)" stop-opacity="1"/>
<stop offset="0.730469" stop-color="rgb(98.429871%, 75.45929%, 60.754395%)" stop-opacity="1"/>
<stop offset="0.746094" stop-color="rgb(98.429871%, 75.668335%, 60.960388%)" stop-opacity="1"/>
<stop offset="0.761719" stop-color="rgb(98.556519%, 75.811768%, 61.283875%)" stop-opacity="1"/>
<stop offset="0.773438" stop-color="rgb(98.733521%, 75.98877%, 61.479187%)" stop-opacity="1"/>
<stop offset="0.777344" stop-color="rgb(98.802185%, 76.113892%, 61.547852%)" stop-opacity="1"/>
<stop offset="0.78125" stop-color="rgb(98.822021%, 76.287842%, 61.567688%)" stop-opacity="1"/>
<stop offset="0.785156" stop-color="rgb(98.822021%, 76.481628%, 61.567688%)" stop-opacity="1"/>
<stop offset="0.789062" stop-color="rgb(98.822021%, 76.675415%, 61.567688%)" stop-opacity="1"/>
<stop offset="0.792969" stop-color="rgb(98.822021%, 76.940918%, 61.691284%)" stop-opacity="1"/>
<stop offset="0.804688" stop-color="rgb(98.822021%, 77.253723%, 61.886597%)" stop-opacity="1"/>
<stop offset="0.816406" stop-color="rgb(98.822021%, 77.522278%, 62.078857%)" stop-opacity="1"/>
<stop offset="0.835938" stop-color="rgb(98.822021%, 77.685547%, 62.295532%)" stop-opacity="1"/>
<stop offset="0.84375" stop-color="rgb(98.822021%, 77.920532%, 62.489319%)" stop-opacity="1"/>
<stop offset="0.851562" stop-color="rgb(98.840332%, 78.291321%, 62.683105%)" stop-opacity="1"/>
<stop offset="0.859375" stop-color="rgb(99.035645%, 78.660583%, 62.974548%)" stop-opacity="1"/>
<stop offset="0.875" stop-color="rgb(99.214172%, 79.034424%, 63.348389%)" stop-opacity="1"/>
<stop offset="0.890625" stop-color="rgb(99.214172%, 79.214478%, 63.528442%)" stop-opacity="1"/>
<stop offset="0.902344" stop-color="rgb(99.214172%, 79.238892%, 63.540649%)" stop-opacity="1"/>
<stop offset="0.90625" stop-color="rgb(99.214172%, 79.359436%, 63.601685%)" stop-opacity="1"/>
<stop offset="0.910156" stop-color="rgb(99.214172%, 79.650879%, 63.746643%)" stop-opacity="1"/>
<stop offset="0.917969" stop-color="rgb(99.214172%, 79.980469%, 63.94043%)" stop-opacity="1"/>
<stop offset="0.925781" stop-color="rgb(99.214172%, 80.310059%, 64.231873%)" stop-opacity="1"/>
<stop offset="0.941406" stop-color="rgb(99.220276%, 80.648804%, 64.570618%)" stop-opacity="1"/>
<stop offset="0.953125" stop-color="rgb(99.371338%, 80.940247%, 64.862061%)" stop-opacity="1"/>
<stop offset="0.964844" stop-color="rgb(99.562073%, 81.280518%, 65.052795%)" stop-opacity="1"/>
<stop offset="0.980469" stop-color="rgb(99.606323%, 81.57196%, 65.1474%)" stop-opacity="1"/>
<stop offset="0.988281" stop-color="rgb(99.606323%, 81.814575%, 65.342712%)" stop-opacity="1"/>
<stop offset="1" stop-color="rgb(99.606323%, 81.959534%, 65.489197%)" stop-opacity="1"/>
</radialGradient>
<clipPath id="clip-3">
<path clip-rule="nonzero" d="M 1406 1384 L 1645 1384 L 1645 1545 L 1406 1545 Z M 1406 1384 "/>
</clipPath>
<clipPath id="clip-4">
<path clip-rule="nonzero" d="M 1492.96875 1544.398438 C 1450.738281 1544.398438 1416.71875 1528.019531 1408.191406 1499.78125 C 1396.210938 1460.160156 1438.898438 1412.210938 1503.53125 1392.660156 C 1522.101562 1387.050781 1540.449219 1384.390625 1557.46875 1384.390625 C 1599.710938 1384.390625 1633.71875 1400.769531 1642.261719 1429.011719 C 1654.238281 1468.628906 1611.550781 1516.578125 1546.910156 1536.128906 C 1528.351562 1541.738281 1510 1544.398438 1492.96875 1544.398438 "/>
</clipPath>
<clipPath id="clip-5">
<path clip-rule="nonzero" d="M 1492.96875 1544.398438 C 1450.738281 1544.398438 1416.71875 1528.019531 1408.191406 1499.78125 C 1396.210938 1460.160156 1438.898438 1412.210938 1503.53125 1392.660156 C 1522.101562 1387.050781 1540.449219 1384.390625 1557.46875 1384.390625 C 1599.710938 1384.390625 1633.71875 1400.769531 1642.261719 1429.011719 C 1654.238281 1468.628906 1611.550781 1516.578125 1546.910156 1536.128906 C 1528.351562 1541.738281 1510 1544.398438 1492.96875 1544.398438 "/>
</clipPath>
<radialGradient id="radial-pattern-1" gradientUnits="userSpaceOnUse" cx="0" cy="0" fx="0" fy="0" r="78.419337" gradientTransform="matrix(1.253061, -0.319341, 0.174569, 0.684993, 1525.22, 1464.4)">
<stop offset="0" stop-color="rgb(95.684814%, 59.341431%, 48.753357%)" stop-opacity="1"/>
<stop offset="0.015625" stop-color="rgb(95.684814%, 59.538269%, 49.024963%)" stop-opacity="1"/>
<stop offset="0.0429688" stop-color="rgb(95.684814%, 59.631348%, 49.28894%)" stop-opacity="1"/>
<stop offset="0.0546875" stop-color="rgb(95.684814%, 59.80072%, 49.411011%)" stop-opacity="1"/>
<stop offset="0.0664062" stop-color="rgb(95.803833%, 60.092163%, 49.530029%)" stop-opacity="1"/>
<stop offset="0.078125" stop-color="rgb(96.000671%, 60.38208%, 49.794006%)" stop-opacity="1"/>
<stop offset="0.0898438" stop-color="rgb(96.076965%, 60.673523%, 50.067139%)" stop-opacity="1"/>
<stop offset="0.101562" stop-color="rgb(96.076965%, 60.964966%, 50.195312%)" stop-opacity="1"/>
<stop offset="0.113281" stop-color="rgb(96.076965%, 61.256409%, 50.195312%)" stop-opacity="1"/>
<stop offset="0.125" stop-color="rgb(96.076965%, 61.483765%, 50.257874%)" stop-opacity="1"/>
<stop offset="0.136719" stop-color="rgb(96.076965%, 61.579895%, 50.465393%)" stop-opacity="1"/>
<stop offset="0.148438" stop-color="rgb(96.076965%, 61.737061%, 50.756836%)" stop-opacity="1"/>
<stop offset="0.160156" stop-color="rgb(96.076965%, 62.028503%, 50.941467%)" stop-opacity="1"/>
<stop offset="0.171875" stop-color="rgb(96.133423%, 62.31842%, 51.036072%)" stop-opacity="1"/>
<stop offset="0.183594" stop-color="rgb(96.330261%, 62.609863%, 51.237488%)" stop-opacity="1"/>
<stop offset="0.195312" stop-color="rgb(96.469116%, 62.945557%, 51.573181%)" stop-opacity="1"/>
<stop offset="0.21875" stop-color="rgb(96.469116%, 63.186646%, 51.81427%)" stop-opacity="1"/>
<stop offset="0.230469" stop-color="rgb(96.469116%, 63.381958%, 52.009583%)" stop-opacity="1"/>
<stop offset="0.242188" stop-color="rgb(96.469116%, 63.673401%, 52.301025%)" stop-opacity="1"/>
<stop offset="0.253906" stop-color="rgb(96.469116%, 63.916016%, 52.497864%)" stop-opacity="1"/>
<stop offset="0.261719" stop-color="rgb(96.469116%, 64.109802%, 52.548218%)" stop-opacity="1"/>
<stop offset="0.269531" stop-color="rgb(96.469116%, 64.303589%, 52.592468%)" stop-opacity="1"/>
<stop offset="0.277344" stop-color="rgb(96.469116%, 64.498901%, 52.732849%)" stop-opacity="1"/>
<stop offset="0.285156" stop-color="rgb(96.511841%, 64.692688%, 52.928162%)" stop-opacity="1"/>
<stop offset="0.292969" stop-color="rgb(96.707153%, 64.942932%, 53.178406%)" stop-opacity="1"/>
<stop offset="0.3125" stop-color="rgb(96.861267%, 65.097046%, 53.33252%)" stop-opacity="1"/>
<stop offset="0.320312" stop-color="rgb(96.861267%, 65.270996%, 53.419495%)" stop-opacity="1"/>
<stop offset="0.328125" stop-color="rgb(96.861267%, 65.638733%, 53.6026%)" stop-opacity="1"/>
<stop offset="0.335938" stop-color="rgb(96.861267%, 65.940857%, 53.796387%)" stop-opacity="1"/>
<stop offset="0.34375" stop-color="rgb(96.861267%, 66.148376%, 53.990173%)" stop-opacity="1"/>
<stop offset="0.351562" stop-color="rgb(96.861267%, 66.342163%, 54.101562%)" stop-opacity="1"/>
<stop offset="0.359375" stop-color="rgb(96.861267%, 66.552734%, 54.246521%)" stop-opacity="1"/>
<stop offset="0.378906" stop-color="rgb(96.987915%, 66.792297%, 54.441833%)" stop-opacity="1"/>
<stop offset="0.394531" stop-color="rgb(97.184753%, 67.114258%, 54.634094%)" stop-opacity="1"/>
<stop offset="0.410156" stop-color="rgb(97.253418%, 67.501831%, 54.953003%)" stop-opacity="1"/>
<stop offset="0.425781" stop-color="rgb(97.253418%, 67.89093%, 55.220032%)" stop-opacity="1"/>
<stop offset="0.441406" stop-color="rgb(97.253418%, 68.278503%, 55.412292%)" stop-opacity="1"/>
<stop offset="0.457031" stop-color="rgb(97.253418%, 68.666077%, 55.725098%)" stop-opacity="1"/>
<stop offset="0.472656" stop-color="rgb(97.253418%, 69.055176%, 55.99823%)" stop-opacity="1"/>
<stop offset="0.488281" stop-color="rgb(97.366333%, 69.442749%, 56.190491%)" stop-opacity="1"/>
<stop offset="0.503906" stop-color="rgb(97.563171%, 69.78302%, 56.448364%)" stop-opacity="1"/>
<stop offset="0.515625" stop-color="rgb(97.645569%, 70.082092%, 56.738281%)" stop-opacity="1"/>
<stop offset="0.542969" stop-color="rgb(97.645569%, 70.332336%, 56.930542%)" stop-opacity="1"/>
<stop offset="0.546875" stop-color="rgb(97.645569%, 70.526123%, 57.026672%)" stop-opacity="1"/>
<stop offset="0.550781" stop-color="rgb(97.645569%, 70.71991%, 57.124329%)" stop-opacity="1"/>
<stop offset="0.554688" stop-color="rgb(97.645569%, 71.003723%, 57.318115%)" stop-opacity="1"/>
<stop offset="0.566406" stop-color="rgb(97.645569%, 71.334839%, 57.609558%)" stop-opacity="1"/>
<stop offset="0.578125" stop-color="rgb(97.650146%, 71.626282%, 57.901001%)" stop-opacity="1"/>
<stop offset="0.589844" stop-color="rgb(97.845459%, 71.963501%, 58.23822%)" stop-opacity="1"/>
<stop offset="0.613281" stop-color="rgb(98.03772%, 72.349548%, 58.624268%)" stop-opacity="1"/>
<stop offset="0.636719" stop-color="rgb(98.03772%, 72.735596%, 58.91571%)" stop-opacity="1"/>
<stop offset="0.644531" stop-color="rgb(98.03772%, 73.121643%, 59.109497%)" stop-opacity="1"/>
<stop offset="0.652344" stop-color="rgb(98.03772%, 73.417664%, 59.210205%)" stop-opacity="1"/>
<stop offset="0.660156" stop-color="rgb(98.03772%, 73.614502%, 59.214783%)" stop-opacity="1"/>
<stop offset="0.667969" stop-color="rgb(98.03772%, 73.808289%, 59.30481%)" stop-opacity="1"/>
<stop offset="0.675781" stop-color="rgb(98.03772%, 74.003601%, 59.492493%)" stop-opacity="1"/>
<stop offset="0.683594" stop-color="rgb(98.126221%, 74.108887%, 59.687805%)" stop-opacity="1"/>
<stop offset="0.691406" stop-color="rgb(98.323059%, 74.290466%, 59.892273%)" stop-opacity="1"/>
<stop offset="0.707031" stop-color="rgb(98.429871%, 74.658203%, 59.999084%)" stop-opacity="1"/>
<stop offset="0.714844" stop-color="rgb(98.429871%, 74.961853%, 60.168457%)" stop-opacity="1"/>
<stop offset="0.722656" stop-color="rgb(98.429871%, 75.167847%, 60.533142%)" stop-opacity="1"/>
<stop offset="0.730469" stop-color="rgb(98.429871%, 75.45929%, 60.754395%)" stop-opacity="1"/>
<stop offset="0.746094" stop-color="rgb(98.429871%, 75.668335%, 60.960388%)" stop-opacity="1"/>
<stop offset="0.761719" stop-color="rgb(98.556519%, 75.811768%, 61.283875%)" stop-opacity="1"/>
<stop offset="0.773438" stop-color="rgb(98.733521%, 75.98877%, 61.479187%)" stop-opacity="1"/>
<stop offset="0.777344" stop-color="rgb(98.802185%, 76.113892%, 61.547852%)" stop-opacity="1"/>
<stop offset="0.78125" stop-color="rgb(98.822021%, 76.287842%, 61.567688%)" stop-opacity="1"/>
<stop offset="0.785156" stop-color="rgb(98.822021%, 76.481628%, 61.567688%)" stop-opacity="1"/>
<stop offset="0.789062" stop-color="rgb(98.822021%, 76.675415%, 61.567688%)" stop-opacity="1"/>
<stop offset="0.792969" stop-color="rgb(98.822021%, 76.940918%, 61.691284%)" stop-opacity="1"/>
<stop offset="0.804688" stop-color="rgb(98.822021%, 77.253723%, 61.886597%)" stop-opacity="1"/>
<stop offset="0.816406" stop-color="rgb(98.822021%, 77.522278%, 62.078857%)" stop-opacity="1"/>
<stop offset="0.835938" stop-color="rgb(98.822021%, 77.685547%, 62.295532%)" stop-opacity="1"/>
<stop offset="0.84375" stop-color="rgb(98.822021%, 77.920532%, 62.489319%)" stop-opacity="1"/>
<stop offset="0.851562" stop-color="rgb(98.840332%, 78.291321%, 62.683105%)" stop-opacity="1"/>
<stop offset="0.859375" stop-color="rgb(99.035645%, 78.660583%, 62.974548%)" stop-opacity="1"/>
<stop offset="0.875" stop-color="rgb(99.214172%, 79.034424%, 63.348389%)" stop-opacity="1"/>
<stop offset="0.890625" stop-color="rgb(99.214172%, 79.214478%, 63.528442%)" stop-opacity="1"/>
<stop offset="0.902344" stop-color="rgb(99.214172%, 79.238892%, 63.540649%)" stop-opacity="1"/>
<stop offset="0.90625" stop-color="rgb(99.214172%, 79.359436%, 63.601685%)" stop-opacity="1"/>
<stop offset="0.910156" stop-color="rgb(99.214172%, 79.650879%, 63.746643%)" stop-opacity="1"/>
<stop offset="0.917969" stop-color="rgb(99.214172%, 79.980469%, 63.94043%)" stop-opacity="1"/>
<stop offset="0.925781" stop-color="rgb(99.214172%, 80.310059%, 64.231873%)" stop-opacity="1"/>
<stop offset="0.941406" stop-color="rgb(99.220276%, 80.648804%, 64.570618%)" stop-opacity="1"/>
<stop offset="0.953125" stop-color="rgb(99.371338%, 80.940247%, 64.862061%)" stop-opacity="1"/>
<stop offset="0.964844" stop-color="rgb(99.562073%, 81.280518%, 65.052795%)" stop-opacity="1"/>
<stop offset="0.980469" stop-color="rgb(99.606323%, 81.57196%, 65.1474%)" stop-opacity="1"/>
<stop offset="0.988281" stop-color="rgb(99.606323%, 81.814575%, 65.342712%)" stop-opacity="1"/>
<stop offset="1" stop-color="rgb(99.606323%, 81.959534%, 65.489197%)" stop-opacity="1"/>
</radialGradient>
<clipPath id="clip-6">
<path clip-rule="nonzero" d="M 891 3633 L 1387 3633 L 1387 3887.710938 L 891 3887.710938 Z M 891 3633 "/>
</clipPath>
<clipPath id="clip-7">
<path clip-rule="nonzero" d="M 891 3633 L 1373 3633 L 1373 3887.710938 L 891 3887.710938 Z M 891 3633 "/>
</clipPath>
<clipPath id="clip-8">
<path clip-rule="nonzero" d="M 1578 1096 L 2161.101562 1096 L 2161.101562 1917 L 1578 1917 Z M 1578 1096 "/>
</clipPath>
<clipPath id="clip-9">
<path clip-rule="nonzero" d="M 2068 1248 L 2161.101562 1248 L 2161.101562 1366 L 2068 1366 Z M 2068 1248 "/>
</clipPath>
</defs>
<path fill-rule="nonzero" fill="rgb(18.431091%, 48.631287%, 35.301208%)" fill-opacity="1" d="M 1169.851562 1769.621094 C 948.671875 1822.550781 807.925781 1973.730469 807.925781 1973.730469 C 807.925781 1973.730469 847.394531 2556.101562 847.394531 2637.789062 C 847.394531 2713.828125 1606.988281 2757.03125 1621.949219 2614.320312 C 1644.941406 2395.078125 1521.050781 2077.910156 1475.539062 1913.871094 C 1430.03125 1749.828125 1391.039062 1716.699219 1169.851562 1769.621094 "/>
<path fill-rule="nonzero" fill="rgb(12.547302%, 35.693359%, 24.705505%)" fill-opacity="1" d="M 1369.460938 1752.761719 C 1383.988281 1772.089844 1284.28125 1821.640625 1223.390625 1832.730469 C 1163.351562 1843.671875 930.960938 1905.558594 815.535156 2087.871094 C 827.007812 2261.75 847.394531 2579.078125 847.394531 2637.789062 C 847.394531 2713.828125 1606.988281 2757.03125 1621.949219 2614.320312 C 1644.941406 2395.078125 1521.050781 2077.910156 1475.539062 1913.871094 C 1449.648438 1820.558594 1425.871094 1769.601562 1369.460938 1752.761719 "/>
<path fill-rule="nonzero" fill="rgb(99.609375%, 82.03125%, 65.429688%)" fill-opacity="1" d="M 1304.121094 1858.03125 L 1294.640625 1806.839844 L 1160.039062 1816.21875 L 1160.039062 1891.339844 C 1160.039062 1891.339844 1124.378906 1893.449219 1120.148438 1913.398438 C 1115.941406 1933.300781 1153.648438 1995.851562 1265.21875 1982.730469 C 1376.949219 1969.578125 1386.199219 1887.839844 1372.261719 1869.429688 C 1355.039062 1846.691406 1304.121094 1858.03125 1304.121094 1858.03125 "/>
<path fill-rule="nonzero" fill="rgb(100%, 69.334412%, 56.443787%)" fill-opacity="1" d="M 1304.121094 1858.03125 L 1294.640625 1806.839844 L 1277.269531 1808.050781 C 1280.238281 1832.730469 1283.289062 1846.691406 1285.878906 1872.089844 C 1307.78125 1880.851562 1330.941406 1921.851562 1269.910156 1944.390625 C 1254.640625 1950.03125 1179.351562 1964.890625 1136.511719 1949.390625 C 1156.929688 1970.75 1197.441406 1990.699219 1265.21875 1982.730469 C 1376.949219 1969.578125 1386.199219 1887.839844 1372.261719 1869.429688 C 1355.039062 1846.691406 1304.121094 1858.03125 1304.121094 1858.03125 "/>
<path fill-rule="nonzero" fill="rgb(37.255859%, 19.213867%, 9.008789%)" fill-opacity="1" d="M 1781.628906 505.140625 C 1781.628906 505.140625 1636.859375 -69.109375 963.820312 6.941406 C 337.324219 77.730469 212.210938 586.699219 212.210938 586.699219 C 166.046875 561.808594 80.289062 543.03125 27.082031 620.648438 C -32.550781 707.648438 24.894531 831.289062 24.894531 831.289062 C 95.9375 655.078125 204.855469 727.691406 204.855469 727.691406 C 176.558594 1135.578125 554.449219 1506.378906 554.449219 1506.378906 L 1738.648438 1035.96875 C 1956.699219 669.789062 1781.628906 505.140625 1781.628906 505.140625 "/>
<path fill-rule="nonzero" fill="rgb(99.609375%, 82.03125%, 65.429688%)" fill-opacity="1" d="M 1687.738281 1180.261719 L 1712.148438 1339.71875 C 1792.269531 1296.53125 1845.089844 1132.050781 1788.199219 1073.839844 C 1738.648438 1023.140625 1697.75 1154.398438 1687.738281 1180.261719 "/>
<path fill-rule="nonzero" fill="rgb(100%, 69.334412%, 56.443787%)" fill-opacity="1" d="M 1749.878906 1267.101562 C 1726.410156 1285.03125 1712.910156 1279.871094 1696.011719 1234.289062 L 1712.148438 1339.71875 C 1786.601562 1299.589844 1837.449219 1154.75 1798.648438 1087.738281 C 1819.191406 1153.289062 1781.628906 1242.851562 1749.878906 1267.101562 "/>
<path fill-rule="nonzero" fill="rgb(80.076599%, 55.664062%, 45.092773%)" fill-opacity="1" d="M 1750.691406 1128.371094 C 1735.851562 1131 1722.949219 1143.480469 1717.789062 1163.800781 C 1712.011719 1186.550781 1709.558594 1206.859375 1709.558594 1206.859375 C 1722.769531 1154.308594 1734.449219 1141.371094 1752.769531 1136.878906 C 1763.121094 1134.351562 1774.730469 1140.21875 1787.28125 1154.339844 C 1787.28125 1154.339844 1772.710938 1124.46875 1750.691406 1128.371094 "/>
<path fill-rule="nonzero" fill="rgb(80.076599%, 55.664062%, 45.092773%)" fill-opacity="1" d="M 1754.910156 1148.140625 C 1738.679688 1142.019531 1721.070312 1160.5 1721.070312 1160.5 C 1731.890625 1153.890625 1743.800781 1152.441406 1751.019531 1156 C 1767.140625 1163.929688 1770.621094 1194.171875 1770.671875 1194.648438 C 1770.671875 1194.648438 1776.28125 1156.210938 1754.910156 1148.140625 "/>
<path fill-rule="nonzero" fill="rgb(99.609375%, 82.03125%, 65.429688%)" fill-opacity="1" d="M 1712.148438 1129.871094 C 1756.300781 855.289062 1646.429688 679.179688 1584.460938 580.589844 C 1522.488281 482 1357.230469 343.039062 1038 394.679688 C 793.144531 434.289062 593.882812 528.949219 492.480469 745.839844 C 377.0625 992.710938 451.636719 1344.410156 544.589844 1589.46875 C 637.546875 1834.53125 1010.769531 1865.519531 1202.308594 1838.761719 C 1452.839844 1803.761719 1658.628906 1688.058594 1719.660156 1530.789062 C 1777.429688 1381.921875 1682.101562 1316.710938 1712.148438 1129.871094 "/>
<g clip-path="url(#clip-0)">
<g clip-path="url(#clip-1)">
<g clip-path="url(#clip-2)">
<path fill-rule="nonzero" fill="url(#radial-pattern-0)" d="M 857.46875 1433.105469 L 847.632812 1597.164062 L 1101.519531 1612.382812 L 1111.355469 1448.328125 Z M 857.46875 1433.105469 "/>
</g>
</g>
</g>
<g clip-path="url(#clip-3)">
<g clip-path="url(#clip-4)">
<g clip-path="url(#clip-5)">
<path fill-rule="nonzero" fill="url(#radial-pattern-1)" d="M 1357.917969 1394.148438 L 1411.945312 1606.148438 L 1692.53125 1534.640625 L 1638.503906 1322.640625 Z M 1357.917969 1394.148438 "/>
</g>
</g>
</g>
<path fill-rule="nonzero" fill="rgb(100%, 69.334412%, 56.443787%)" fill-opacity="1" d="M 984.777344 1803.238281 C 726 1775.828125 565.222656 1633 569.847656 1511.328125 C 565.46875 1504.761719 496.054688 1338.371094 458.476562 1288.679688 C 479.164062 1396.300781 510.648438 1499.988281 544.589844 1589.46875 C 637.546875 1834.53125 1010.769531 1865.519531 1202.308594 1838.761719 C 1452.839844 1803.761719 1658.628906 1688.058594 1719.660156 1530.789062 C 1750.269531 1451.910156 1737.898438 1396.519531 1723.96875 1334.070312 C 1760.039062 1703.871094 1300.160156 1836.640625 984.777344 1803.238281 "/>
<path fill-rule="nonzero" fill="rgb(29.80957%, 15.281677%, 7.054138%)" fill-opacity="1" d="M 807.925781 1076.101562 C 746.71875 1120.878906 746.199219 1196.710938 746.199219 1196.710938 C 746.101562 1190.898438 838.328125 1081.710938 953.496094 1083.859375 C 953.496094 1083.859375 899.976562 1008.738281 807.925781 1076.101562 "/>
<path fill-rule="nonzero" fill="rgb(80.076599%, 55.664062%, 45.092773%)" fill-opacity="1" d="M 852.226562 1218.398438 C 813.339844 1262.101562 828.890625 1323.601562 828.890625 1323.601562 C 828.832031 1323.03125 823.753906 1266.289062 860.503906 1225.839844 C 885.269531 1198.570312 923.234375 1184.75 973.355469 1184.75 C 973.507812 1184.75 973.660156 1184.75 973.8125 1184.75 C 973.8125 1184.75 905.277344 1158.78125 852.226562 1218.398438 "/>
<path fill-rule="nonzero" fill="rgb(100%, 100%, 100%)" fill-opacity="1" d="M 1024.089844 1234.988281 C 978.871094 1197.199219 904.351562 1210.648438 871.761719 1267.421875 C 834.867188 1331.691406 873.140625 1407.75 931.84375 1421.539062 C 1011.621094 1440.28125 1080.328125 1398.929688 1080.328125 1398.929688 C 1080.328125 1398.929688 1084.691406 1285.609375 1024.089844 1234.988281 "/>
<path fill-rule="nonzero" fill="rgb(37.255859%, 78.125%, 90.234375%)" fill-opacity="1" d="M 968.816406 1274.308594 C 926.8125 1274.308594 892.761719 1308.359375 892.761719 1350.359375 C 892.761719 1392.359375 926.8125 1426.410156 968.816406 1426.410156 C 1010.820312 1426.410156 1044.871094 1392.359375 1044.871094 1350.359375 C 1044.871094 1308.359375 1010.820312 1274.308594 968.816406 1274.308594 "/>
<path fill-rule="nonzero" fill="rgb(0%, 0%, 0%)" fill-opacity="1" d="M 968.816406 1297.941406 C 939.867188 1297.941406 916.398438 1321.410156 916.398438 1350.359375 C 916.398438 1379.308594 939.867188 1402.78125 968.816406 1402.78125 C 997.765625 1402.78125 1021.238281 1379.308594 1021.238281 1350.359375 C 1021.238281 1321.410156 997.765625 1297.941406 968.816406 1297.941406 "/>
<path fill-rule="nonzero" fill="rgb(100%, 100%, 100%)" fill-opacity="1" d="M 926.261719 1306.871094 C 917.023438 1306.871094 909.53125 1314.359375 909.53125 1323.601562 C 909.53125 1332.839844 917.023438 1340.328125 926.261719 1340.328125 C 935.503906 1340.328125 942.992188 1332.839844 942.992188 1323.601562 C 942.992188 1314.359375 935.503906 1306.871094 926.261719 1306.871094 "/>
<path fill-rule="nonzero" fill="rgb(100%, 100%, 100%)" fill-opacity="1" d="M 965.828125 1369.609375 C 961.421875 1369.609375 957.847656 1373.179688 957.847656 1377.589844 C 957.847656 1382 961.421875 1385.570312 965.828125 1385.570312 C 970.238281 1385.570312 973.8125 1382 973.8125 1377.589844 C 973.8125 1373.179688 970.238281 1369.609375 965.828125 1369.609375 "/>
<path fill-rule="nonzero" fill="rgb(29.80957%, 15.281677%, 7.054138%)" fill-opacity="1" d="M 1533.75 972.171875 C 1476.789062 955.890625 1435.480469 1013.480469 1435.480469 1013.480469 C 1435.480469 1013.480469 1541.269531 991.570312 1605.109375 1062.300781 C 1605.109375 1062.300781 1590.71875 988.441406 1533.75 972.171875 "/>
<path fill-rule="nonzero" fill="rgb(80.076599%, 55.664062%, 45.092773%)" fill-opacity="1" d="M 1548.78125 1120.210938 C 1494.121094 1102.210938 1440.851562 1141.480469 1440.851562 1141.480469 C 1441.410156 1141.210938 1497.71875 1114.21875 1548.5 1132.058594 C 1574.941406 1141.359375 1595.5 1161.210938 1609.601562 1191.089844 C 1609.601562 1191.089844 1605.820312 1138.980469 1548.78125 1120.210938 "/>
<path fill-rule="nonzero" fill="rgb(100%, 100%, 100%)" fill-opacity="1" d="M 1564.621094 1173.429688 C 1529.929688 1144.839844 1451.730469 1137.929688 1416.941406 1204.75 C 1385.601562 1264.960938 1414.011719 1360.03125 1414.011719 1360.03125 C 1414.011719 1360.03125 1522.328125 1387.101562 1570.890625 1327.960938 C 1618.828125 1269.578125 1601.121094 1203.519531 1564.621094 1173.429688 "/>
<path fill-rule="nonzero" fill="rgb(37.255859%, 78.125%, 90.234375%)" fill-opacity="1" d="M 1470.429688 1212.820312 C 1432.03125 1215.601562 1403.351562 1251.820312 1406.390625 1293.710938 C 1409.421875 1335.609375 1443.011719 1367.308594 1481.421875 1364.53125 C 1519.828125 1361.75 1548.5 1325.53125 1545.460938 1283.640625 C 1542.429688 1241.75 1508.839844 1210.039062 1470.429688 1212.820312 "/>
<path fill-rule="nonzero" fill="rgb(0%, 0%, 0%)" fill-opacity="1" d="M 1472.140625 1236.398438 C 1445.671875 1238.308594 1425.910156 1263.269531 1428 1292.148438 C 1430.089844 1321.019531 1453.238281 1342.878906 1479.710938 1340.960938 C 1506.179688 1339.039062 1525.949219 1314.078125 1523.851562 1285.210938 C 1521.761719 1256.328125 1498.609375 1234.480469 1472.140625 1236.398438 "/>
<path fill-rule="nonzero" fill="rgb(100%, 100%, 100%)" fill-opacity="1" d="M 1430.089844 1250.078125 C 1421.640625 1250.691406 1415.328125 1258.660156 1416 1267.871094 C 1416.671875 1277.089844 1424.058594 1284.058594 1432.511719 1283.449219 C 1440.949219 1282.839844 1447.261719 1274.871094 1446.589844 1265.660156 C 1445.929688 1256.441406 1438.539062 1249.46875 1430.089844 1250.078125 "/>
<path fill-rule="nonzero" fill="rgb(100%, 100%, 100%)" fill-opacity="1" d="M 1470.488281 1314.960938 C 1466.460938 1315.25 1463.449219 1319.050781 1463.769531 1323.449219 C 1464.089844 1327.851562 1467.621094 1331.171875 1471.648438 1330.878906 C 1475.679688 1330.589844 1478.691406 1326.789062 1478.371094 1322.390625 C 1478.050781 1318 1474.519531 1314.671875 1470.488281 1314.960938 "/>
<path fill-rule="nonzero" fill="rgb(100%, 69.334412%, 56.443787%)" fill-opacity="1" d="M 1311.558594 1420.230469 C 1311.558594 1420.230469 1280.710938 1433.410156 1280.710938 1467.878906 C 1280.710938 1503.089844 1311.558594 1511.699219 1311.558594 1511.699219 C 1259.820312 1462.949219 1311.558594 1420.230469 1311.558594 1420.230469 "/>
<path fill-rule="nonzero" fill="rgb(80.076599%, 55.664062%, 45.092773%)" fill-opacity="1" d="M 1354.421875 1407.441406 C 1310.910156 1398.398438 1293.390625 1436.328125 1293.390625 1436.328125 C 1303.761719 1419.050781 1328.601562 1410.480469 1352.460938 1415.980469 C 1363.449219 1418.511719 1389.339844 1428.011719 1392.308594 1461.550781 C 1394.019531 1481.03125 1383.988281 1498.621094 1365.460938 1508.601562 C 1343.140625 1520.640625 1316.101562 1518.410156 1296.578125 1502.941406 C 1296.578125 1502.941406 1320.929688 1536.421875 1369.621094 1516.320312 C 1392.410156 1506.910156 1403.070312 1483.859375 1401.03125 1460.78125 C 1398.628906 1433.539062 1381.328125 1413.019531 1354.421875 1407.441406 "/>
<path fill-rule="nonzero" fill="rgb(80.076599%, 55.664062%, 45.092773%)" fill-opacity="1" d="M 1041.671875 1575.210938 C 1041.671875 1575.210938 1067.570312 1577.03125 1084.238281 1560.839844 C 1104.460938 1541.191406 1096.878906 1507.421875 1096.878906 1507.421875 C 1096.449219 1533.140625 1086.171875 1565.769531 1041.671875 1575.210938 "/>
<path fill-rule="nonzero" fill="rgb(80.076599%, 55.664062%, 45.092773%)" fill-opacity="1" d="M 1431.300781 1495.019531 L 1431.300781 1495.011719 C 1431.300781 1495.011719 1430.820312 1515.070312 1444.929688 1530.300781 C 1461.769531 1548.46875 1493.71875 1539.550781 1493.71875 1539.550781 C 1446.898438 1541.738281 1432.019531 1496.96875 1431.300781 1495.019531 "/>
<path fill-rule="nonzero" fill="rgb(34.521484%, 3.529358%, 5.099487%)" fill-opacity="1" d="M 1080.25 1555.199219 C 1080.25 1555.199219 1092.398438 1734.109375 1251.140625 1747.679688 C 1408.558594 1761.140625 1435.421875 1661.46875 1429.851562 1619.679688 C 1423.589844 1572.730469 1449.871094 1526.101562 1449.871094 1526.101562 C 1283.359375 1670.691406 1080.25 1555.199219 1080.25 1555.199219 "/>
<path fill-rule="nonzero" fill="rgb(22.75238%, 2.745056%, 4.704285%)" fill-opacity="1" d="M 1287.230469 1616.089844 C 1231.199219 1616.089844 1185.78125 1638.75 1185.78125 1666.699219 C 1185.78125 1694.648438 1231.199219 1717.308594 1287.230469 1717.308594 C 1343.261719 1717.308594 1388.679688 1694.648438 1388.679688 1666.699219 C 1388.679688 1638.75 1343.261719 1616.089844 1287.230469 1616.089844 "/>
<path fill-rule="nonzero" fill="rgb(91.796875%, 36.083984%, 36.083984%)" fill-opacity="1" d="M 1307 1671.628906 C 1227.199219 1652.050781 1177.480469 1694.921875 1160.039062 1713.890625 C 1183.148438 1731.539062 1212.890625 1744.410156 1251.140625 1747.679688 C 1345.21875 1755.730469 1392.660156 1723.359375 1414.421875 1687.101562 C 1349.699219 1634.269531 1307 1671.628906 1307 1671.628906 "/>
<path fill-rule="nonzero" fill="rgb(73.631287%, 25.097656%, 25.097656%)" fill-opacity="1" d="M 1307 1671.628906 C 1227.199219 1652.050781 1177.480469 1694.921875 1160.039062 1713.890625 C 1162.390625 1715.679688 1164.820312 1717.410156 1167.308594 1719.101562 C 1232.828125 1666.46875 1300.429688 1673.039062 1314.039062 1719.101562 C 1307 1631.71875 1395.890625 1685.019531 1408.960938 1695.339844 C 1410.929688 1692.628906 1412.75 1689.871094 1414.421875 1687.101562 C 1349.699219 1634.269531 1307 1671.628906 1307 1671.628906 "/>
<path fill-rule="nonzero" fill="rgb(100%, 100%, 100%)" fill-opacity="1" d="M 1105.679688 1567.328125 C 1104.808594 1581.359375 1108.730469 1600.320312 1130.480469 1615.289062 C 1195.269531 1659.890625 1324.839844 1651.441406 1377.890625 1619.519531 C 1408.640625 1601.011719 1411.691406 1571.160156 1410.800781 1555.078125 C 1289.671875 1630.789062 1159.429688 1590.171875 1105.679688 1567.328125 "/>
<path fill-rule="nonzero" fill="rgb(88.671875%, 87.889099%, 87.889099%)" fill-opacity="1" d="M 1105.679688 1567.328125 C 1104.808594 1581.359375 1108.730469 1600.320312 1130.480469 1615.289062 C 1138.460938 1620.78125 1147.421875 1625.460938 1157.089844 1629.398438 C 1145.511719 1622.339844 1137.089844 1612.851562 1140.648438 1606.53125 C 1145.109375 1598.628906 1160.539062 1602.519531 1166.941406 1604.339844 C 1198.871094 1613.421875 1256.339844 1618.898438 1303.71875 1611.769531 C 1324.238281 1608.691406 1353.800781 1603.261719 1358.421875 1609.609375 C 1363.429688 1616.5 1356.609375 1625.929688 1346.839844 1633 C 1358.78125 1629.199219 1369.339844 1624.671875 1377.890625 1619.519531 C 1408.640625 1601.011719 1411.691406 1571.160156 1410.800781 1555.078125 C 1289.671875 1630.789062 1159.429688 1590.171875 1105.679688 1567.328125 "/>
<path fill-rule="nonzero" fill="rgb(80.076599%, 55.664062%, 45.092773%)" fill-opacity="1" d="M 1290.339844 1770.230469 C 1267.25 1769.550781 1250.308594 1761.929688 1250.140625 1761.851562 C 1250.140625 1761.851562 1280.109375 1785.140625 1318.621094 1776.269531 C 1354.421875 1768.03125 1369.070312 1737.160156 1369.070312 1737.160156 C 1347.46875 1760.011719 1320.988281 1771.140625 1290.339844 1770.230469 "/>
<path fill-rule="nonzero" fill="rgb(37.255859%, 19.213867%, 9.008789%)" fill-opacity="1" d="M 1781.628906 505.140625 C 1691.488281 437.539062 1321.441406 154.730469 782.609375 319.191406 C 350.699219 451.019531 204.855469 727.691406 204.855469 727.691406 C 204.855469 727.691406 109.507812 835.808594 144.136719 1012.5 C 185.449219 1223.289062 294.367188 1401.21875 557.265625 1543.929688 C 557.265625 1543.929688 584.183594 1500.738281 575.417969 1419.371094 C 569.742188 1366.660156 550.222656 1359.898438 571.351562 1265.539062 C 592.476562 1171.179688 588.25 1117.660156 576.984375 1075.410156 C 576.984375 1075.410156 622.050781 1106.390625 695.289062 1100.761719 C 695.289062 1100.761719 600.925781 1019.070312 668.527344 874.011719 C 668.527344 874.011719 718.761719 929.871094 822.046875 939.261719 C 822.046875 939.261719 788.242188 798.421875 844.578125 728.941406 C 844.578125 728.941406 929.082031 796.550781 1021.101562 838.800781 C 1159.371094 902.289062 1203.25 982.449219 1197.621094 1020.011719 C 1197.621094 1020.011719 1360.988281 922.359375 1409.808594 713.921875 C 1409.808594 713.921875 1430.46875 811.570312 1394.789062 871.660156 C 1394.789062 871.660156 1538.761719 850.378906 1585.390625 713.921875 C 1585.390625 713.921875 1629.050781 855.699219 1595.25 920.480469 C 1595.25 920.480469 1659.570312 914.230469 1693.371094 858.519531 C 1693.371094 858.519531 1704.640625 1035.96875 1706.390625 1188.171875 C 1706.390625 1188.171875 1822.941406 943.019531 1862.378906 802.179688 C 1901.808594 661.339844 1871.769531 572.738281 1781.628906 505.140625 "/>
<path fill-rule="nonzero" fill="rgb(24.705505%, 10.984802%, 3.921509%)" fill-opacity="1" d="M 782.609375 445.859375 C 782.609375 445.859375 722.519531 504.539062 739.417969 605.941406 C 756.320312 707.351562 844.578125 728.941406 844.578125 728.941406 C 693.882812 607.820312 782.609375 445.859375 782.609375 445.859375 "/>
<path fill-rule="nonzero" fill="rgb(24.705505%, 10.984802%, 3.921509%)" fill-opacity="1" d="M 572.757812 659.929688 C 572.757812 659.929688 557.265625 728.941406 589.191406 794.671875 C 619.8125 857.71875 668.527344 874.011719 668.527344 874.011719 C 565.71875 774.011719 572.757812 665.570312 572.757812 659.929688 "/>
<path fill-rule="nonzero" fill="rgb(24.705505%, 10.984802%, 3.921509%)" fill-opacity="1" d="M 399.527344 681.058594 C 399.527344 681.058594 344.164062 793.199219 415.90625 940.199219 C 469.945312 1050.941406 576.984375 1075.410156 576.984375 1075.410156 C 334.738281 897.949219 399.527344 681.058594 399.527344 681.058594 "/>
<path fill-rule="nonzero" fill="rgb(24.705505%, 10.984802%, 3.921509%)" fill-opacity="1" d="M 1374.140625 434.589844 C 1374.140625 434.589844 1452.539062 503.128906 1409.808594 713.921875 C 1409.808594 713.921875 1445.960938 666.96875 1436.988281 559.941406 C 1428.03125 452.898438 1374.140625 434.589844 1374.140625 434.589844 "/>
<path fill-rule="nonzero" fill="rgb(24.705505%, 10.984802%, 3.921509%)" fill-opacity="1" d="M 1585.390625 713.921875 C 1585.390625 713.921875 1614.5 689.511719 1622.011719 625.660156 C 1630.160156 556.429688 1602.300781 509.230469 1602.300781 509.230469 C 1602.300781 509.230469 1630.460938 594.210938 1585.390625 713.921875 "/>
<path fill-rule="nonzero" fill="rgb(24.705505%, 10.984802%, 3.921509%)" fill-opacity="1" d="M 1727.171875 497.96875 C 1727.171875 497.96875 1845.480469 618.148438 1693.371094 858.519531 C 1693.371094 858.519531 1758.160156 808.75 1782.570312 685.75 C 1810.320312 545.949219 1727.171875 497.96875 1727.171875 497.96875 "/>
<path fill-rule="nonzero" fill="rgb(100%, 69.334412%, 56.443787%)" fill-opacity="1" d="M 433.6875 1329.859375 C 344.449219 1314.929688 286.183594 1417.890625 358.839844 1513.890625 C 419.242188 1593.699219 520.648438 1592.761719 563.839844 1571.160156 L 574.167969 1529.539062 C 574.167969 1529.539062 538.488281 1347.390625 433.6875 1329.859375 "/>
<path fill-rule="nonzero" fill="rgb(80.076599%, 55.664062%, 45.092773%)" fill-opacity="1" d="M 452.382812 1410 C 418.960938 1389.539062 392.332031 1394.378906 380.691406 1407.761719 C 356.570312 1435.488281 386.433594 1469.160156 386.433594 1469.160156 C 374.242188 1447.691406 374.382812 1426.058594 386.785156 1414.058594 C 400.035156 1401.238281 423.417969 1402.550781 447.808594 1417.46875 C 490.734375 1443.75 502.765625 1506.539062 502.878906 1507.171875 C 502.878906 1507.171875 498.6875 1438.339844 452.382812 1410 "/>
<path fill-rule="nonzero" fill="rgb(80.076599%, 55.664062%, 45.092773%)" fill-opacity="1" d="M 418.039062 1437.480469 C 408.996094 1457.128906 440.101562 1487.078125 440.101562 1487.078125 C 440.03125 1486.980469 439.863281 1486.738281 439.601562 1486.378906 C 433.511719 1478.011719 420.015625 1456.800781 426.222656 1440.621094 C 429.808594 1431.269531 439.839844 1424.78125 456.03125 1421.339844 C 456.03125 1421.339844 427.929688 1416.011719 418.039062 1437.480469 "/>
<path fill-rule="nonzero" fill="rgb(89.84375%, 89.0625%, 89.0625%)" fill-opacity="1" d="M 1712.148438 3601.128906 C 1651.828125 3563.039062 1578.820312 3563.570312 1539.390625 3517.570312 C 1493.378906 3557 1538.058594 3601.910156 1588.839844 3626.480469 C 1642.199219 3652.300781 1660.511719 3650.109375 1707.929688 3669.671875 C 1739.21875 3682.578125 1781.199219 3723.351562 1842.441406 3729.640625 C 1879.179688 3733.421875 1938.460938 3723.71875 1969.890625 3693.570312 C 2016.988281 3648.390625 1985.378906 3601.128906 1985.378906 3601.128906 C 1912.460938 3702.21875 1821.691406 3670.300781 1712.148438 3601.128906 "/>
<path fill-rule="nonzero" fill="rgb(78.90625%, 78.125%, 78.125%)" fill-opacity="1" d="M 1717.78125 3656.53125 C 1680.878906 3637.621094 1619.671875 3633.050781 1576.011719 3599.910156 C 1557.03125 3585.5 1553.941406 3557.46875 1592.378906 3552.929688 C 1571.839844 3544.488281 1553.46875 3534 1539.390625 3517.570312 C 1493.378906 3557 1538.058594 3601.910156 1588.839844 3626.480469 C 1642.199219 3652.300781 1660.511719 3650.109375 1707.929688 3669.671875 C 1739.21875 3682.578125 1781.199219 3723.351562 1842.441406 3729.640625 C 1879.179688 3733.421875 1938.460938 3723.71875 1969.890625 3693.570312 C 1971.21875 3692.289062 1972.488281 3691 1973.699219 3689.71875 C 1954.160156 3698.699219 1922 3714.738281 1875.988281 3715.949219 C 1813.28125 3717.589844 1764.511719 3680.46875 1717.78125 3656.53125 "/>
<path fill-rule="nonzero" fill="rgb(23.535156%, 72.851562%, 87.889099%)" fill-opacity="1" d="M 1889.429688 3495.96875 C 1841.71875 3457.46875 1832.328125 3424.609375 1832.328125 3424.609375 C 1832.328125 3424.609375 1679.289062 3458.410156 1551.589844 3405.828125 C 1551.589844 3405.828125 1514.511719 3499.410156 1528.910156 3540.730469 C 1543.300781 3582.039062 1644.320312 3610.769531 1690.238281 3624.070312 C 1754.769531 3642.75 1752.558594 3659.691406 1825.761719 3685.628906 C 1914.960938 3717.25 1993.441406 3646.511719 1993.199219 3612.078125 C 1992.828125 3559.019531 1937.140625 3534.46875 1889.429688 3495.96875 "/>
<path fill-rule="nonzero" fill="rgb(16.088867%, 55.664062%, 64.646912%)" fill-opacity="1" d="M 1552.910156 3406.359375 C 1552.46875 3406.179688 1552.03125 3406.011719 1551.589844 3405.828125 C 1551.589844 3405.828125 1514.511719 3499.410156 1528.910156 3540.730469 C 1537.359375 3564.980469 1575.671875 3584.898438 1615.160156 3599.910156 C 1632.171875 3576.171875 1637.609375 3524.929688 1621.539062 3486.109375 C 1610.960938 3460.550781 1571.328125 3422.949219 1552.910156 3406.359375 "/>
<path fill-rule="nonzero" fill="rgb(16.088867%, 55.664062%, 64.646912%)" fill-opacity="1" d="M 1832.328125 3424.609375 C 1832.328125 3424.609375 1805.308594 3430.578125 1764.511719 3433.601562 C 1779.960938 3464.121094 1828.410156 3550.109375 1881.78125 3545.109375 C 1905.230469 3542.910156 1913.039062 3529.480469 1914.230469 3514.660156 C 1905.941406 3508.699219 1897.570312 3502.539062 1889.429688 3495.96875 C 1841.71875 3457.46875 1832.328125 3424.609375 1832.328125 3424.609375 "/>
<path fill-rule="nonzero" fill="rgb(16.479492%, 50.976562%, 61.521912%)" fill-opacity="1" d="M 1867.390625 3524.128906 C 1848.609375 3524.128906 1799.890625 3474.519531 1782.460938 3432.011719 C 1776.839844 3432.589844 1770.839844 3433.128906 1764.511719 3433.601562 C 1779.960938 3464.121094 1828.410156 3550.109375 1881.78125 3545.109375 C 1905.230469 3542.910156 1913.039062 3529.480469 1914.230469 3514.660156 C 1908.550781 3510.578125 1902.839844 3506.390625 1897.179688 3502.050781 C 1902.839844 3515.058594 1894.710938 3524.128906 1867.390625 3524.128906 "/>
<path fill-rule="nonzero" fill="rgb(86.326599%, 94.921875%, 97.65625%)" fill-opacity="1" d="M 1831.550781 3561.070312 C 1842.191406 3565.761719 1849.390625 3552.851562 1859.558594 3538.21875 C 1878.5 3510.988281 1902.839844 3506.339844 1902.839844 3506.339844 L 1882.238281 3489.96875 C 1821.691406 3510.988281 1816.21875 3554.308594 1831.550781 3561.070312 "/>
<path fill-rule="nonzero" fill="rgb(86.326599%, 94.921875%, 97.65625%)" fill-opacity="1" d="M 1776.230469 3522.5 C 1786.328125 3529.070312 1799.050781 3514.75 1814.730469 3498.320312 C 1839.371094 3472.5 1860.738281 3469.210938 1860.738281 3469.210938 C 1856.199219 3464.710938 1843.441406 3446.441406 1843.441406 3446.441406 C 1775.191406 3475.328125 1765.761719 3515.679688 1776.230469 3522.5 "/>
<g clip-path="url(#clip-6)">
<path fill-rule="nonzero" fill="rgb(89.84375%, 89.0625%, 89.0625%)" fill-opacity="1" d="M 1253.480469 3828.351562 C 1157.238281 3828.351562 1119.691406 3760.75 1079.308594 3736.339844 C 1038.941406 3711.921875 944.078125 3696.898438 901.839844 3633.050781 C 901.839844 3633.050781 878.351562 3682.820312 901.839844 3720.378906 C 925.328125 3757.929688 1025.789062 3775.769531 1065.230469 3804.878906 C 1104.660156 3833.988281 1150.128906 3883.460938 1240.648438 3887.5 C 1338.609375 3891.890625 1412.320312 3826.789062 1377.890625 3760.28125 C 1377.890625 3760.28125 1349.710938 3828.351562 1253.480469 3828.351562 "/>
</g>
<g clip-path="url(#clip-7)">
<path fill-rule="nonzero" fill="rgb(78.90625%, 78.125%, 78.125%)" fill-opacity="1" d="M 1162.25 3852.761719 C 1133.921875 3839.289062 1114.96875 3820.539062 1087.761719 3799.089844 C 1042.691406 3763.570312 971.109375 3753.890625 965.097656 3731.210938 C 961.476562 3717.558594 979.316406 3710.890625 1006.449219 3705.800781 C 967.75 3690.308594 926.109375 3669.738281 901.839844 3633.050781 C 901.839844 3633.050781 878.351562 3682.820312 901.839844 3720.378906 C 925.328125 3757.929688 1025.789062 3775.769531 1065.230469 3804.878906 C 1104.660156 3833.988281 1150.128906 3883.460938 1240.648438 3887.5 C 1299.21875 3890.121094 1349.121094 3867.898438 1372.421875 3835.390625 C 1338.609375 3862.148438 1261.929688 3900.179688 1162.25 3852.761719 "/>
</g>
<path fill-rule="nonzero" fill="rgb(23.535156%, 72.851562%, 87.889099%)" fill-opacity="1" d="M 1240.648438 3569.210938 C 1192.921875 3599.910156 1022.980469 3604.890625 934.714844 3502.871094 C 934.714844 3502.871094 881.195312 3598.308594 897.160156 3653.710938 C 913.121094 3709.109375 1037.511719 3739.679688 1076.488281 3766.378906 C 1116.238281 3793.609375 1185.71875 3856.210938 1280.238281 3846.191406 C 1377.710938 3835.859375 1409.191406 3755.429688 1361.929688 3705.351562 C 1304.511719 3644.511719 1264.640625 3609.390625 1240.648438 3569.210938 "/>
<path fill-rule="nonzero" fill="rgb(16.088867%, 55.664062%, 64.646912%)" fill-opacity="1" d="M 934.714844 3502.871094 C 934.714844 3502.871094 881.195312 3598.308594 897.160156 3653.710938 C 903.71875 3676.480469 928.597656 3695.050781 958.335938 3710.890625 C 971.644531 3694.230469 984.480469 3668.558594 984.480469 3631.5 C 984.480469 3596.910156 958.261719 3541.769531 941.898438 3510.71875 C 939.453125 3508.171875 937.050781 3505.570312 934.714844 3502.871094 "/>
<path fill-rule="nonzero" fill="rgb(16.088867%, 55.664062%, 64.646912%)" fill-opacity="1" d="M 1240.648438 3569.210938 C 1224.699219 3579.46875 1195.078125 3586.851562 1159.429688 3588.328125 C 1181.078125 3612.871094 1237.300781 3674.96875 1264.589844 3689.699219 C 1288.078125 3702.390625 1313.949219 3684.488281 1309.71875 3651.351562 C 1279.410156 3620.21875 1256.539062 3595.820312 1240.648438 3569.210938 "/>
<path fill-rule="nonzero" fill="rgb(16.479492%, 50.976562%, 61.521912%)" fill-opacity="1" d="M 1300.550781 3641.890625 C 1305.589844 3651.679688 1292.449219 3668.730469 1281.339844 3671.078125 C 1267.410156 3674.019531 1254.269531 3663.261719 1244.410156 3654.488281 C 1221.308594 3632.449219 1202.621094 3611.148438 1179.851562 3586.769531 C 1173.320312 3587.5 1166.5 3588.03125 1159.429688 3588.328125 C 1181.078125 3612.871094 1237.300781 3674.96875 1264.589844 3689.699219 C 1288.078125 3702.390625 1313.949219 3684.488281 1309.71875 3651.351562 C 1306.578125 3648.121094 1303.53125 3644.980469 1300.550781 3641.890625 "/>
<path fill-rule="nonzero" fill="rgb(86.326599%, 94.921875%, 97.65625%)" fill-opacity="1" d="M 1205.128906 3698.46875 C 1215.210938 3705.378906 1228.398438 3691.960938 1247.378906 3675.070312 C 1280.871094 3645.261719 1301.449219 3642.828125 1301.449219 3642.828125 L 1276.609375 3616.339844 C 1202 3649.328125 1194.171875 3690.960938 1205.128906 3698.46875 "/>
<path fill-rule="nonzero" fill="rgb(86.326599%, 94.921875%, 97.65625%)" fill-opacity="1" d="M 1154.429688 3659.578125 C 1166.160156 3669.199219 1183.988281 3648.53125 1200.519531 3633.050781 C 1228.839844 3606.53125 1261.730469 3598.980469 1261.730469 3598.980469 C 1258.101562 3594.828125 1247.011719 3579.210938 1247.011719 3579.210938 C 1172.96875 3592.449219 1141.75 3649.179688 1154.429688 3659.578125 "/>
<path fill-rule="nonzero" fill="rgb(95.701599%, 57.226562%, 13.719177%)" fill-opacity="1" d="M 1874.121094 3365.859375 C 1847.359375 3243.328125 1890.550781 3053.660156 1888.671875 2993.570312 C 1886.789062 2933.480469 1708.390625 2625.511719 1708.390625 2625.511719 L 1223.390625 2766.351562 C 1286.789062 2824.871094 1546.898438 3094.980469 1546.898438 3094.980469 C 1503.710938 3258.351562 1532.5 3347.859375 1532.5 3347.859375 C 1487.429688 3405.449219 1572.25 3435.339844 1622.011719 3450.828125 C 1671.78125 3466.320312 1784.140625 3475.558594 1844.539062 3446.140625 C 1909.980469 3414.261719 1888.730469 3372.429688 1874.121094 3365.859375 "/>
<path fill-rule="nonzero" fill="rgb(80.859375%, 45.483398%, 10.594177%)" fill-opacity="1" d="M 1839.03125 3395.371094 C 1839.179688 3395.351562 1839.289062 3395.351562 1839.378906 3395.351562 C 1839.378906 3395.351562 1873.441406 3393.28125 1878.429688 3364.808594 L 1869.800781 3363.289062 C 1865.78125 3386.199219 1842.421875 3394.851562 1839.03125 3395.371094 "/>
<path fill-rule="nonzero" fill="rgb(80.859375%, 45.483398%, 10.594177%)" fill-opacity="1" d="M 1603.558594 2655.960938 L 1539.960938 2675.300781 C 1674.230469 2795.480469 1778.820312 2751.570312 1778.820312 2751.570312 L 1760.011719 2717.160156 C 1668.28125 2735.5 1603.558594 2655.960938 1603.558594 2655.960938 "/>
<path fill-rule="nonzero" fill="rgb(86.71875%, 50.584412%, 14.892578%)" fill-opacity="1" d="M 1631.148438 3073.429688 C 1582.128906 3030.140625 1402.890625 2805.941406 1341.328125 2730.289062 L 1223.390625 2764.539062 C 1288.828125 2828.878906 1546.898438 3094.980469 1546.898438 3094.980469 C 1503.710938 3258.351562 1532.199219 3346.859375 1532.199219 3346.859375 C 1485.570312 3406.640625 1572.25 3435.339844 1622.011719 3450.828125 C 1629.648438 3453.210938 1639.859375 3455.648438 1650.03125 3457.609375 C 1533.609375 3213.96875 1658.101562 3097.238281 1631.148438 3073.429688 "/>
<path fill-rule="nonzero" fill="rgb(78.125%, 45.483398%, 13.330078%)" fill-opacity="1" d="M 1541.890625 3385.800781 C 1538.140625 3369.96875 1559.148438 3372.03125 1559.148438 3372.03125 C 1528.171875 3234.320312 1570.671875 3123.210938 1579.601562 3084.878906 C 1471.019531 2993.640625 1281.421875 2750.03125 1279.929688 2748.121094 L 1223.390625 2764.539062 C 1288.828125 2828.878906 1546.898438 3094.980469 1546.898438 3094.980469 C 1503.710938 3258.351562 1532.199219 3346.859375 1532.199219 3346.859375 C 1485.570312 3406.640625 1572.25 3435.339844 1622.011719 3450.828125 C 1629.648438 3453.210938 1639.859375 3455.648438 1650.03125 3457.609375 C 1649.261719 3456.019531 1549.589844 3418.238281 1541.890625 3385.800781 "/>
<path fill-rule="nonzero" fill="rgb(60.742188%, 36.473083%, 18.431091%)" fill-opacity="1" d="M 1536.691406 3344.769531 L 1528.308594 3347.339844 C 1537.371094 3376.78125 1559.148438 3383.171875 1559.148438 3383.171875 C 1559.011719 3383.050781 1544.890625 3371.421875 1536.691406 3344.769531 "/>
<path fill-rule="nonzero" fill="rgb(95.701599%, 57.226562%, 13.719177%)" fill-opacity="1" d="M 1008.890625 3171.101562 C 997.625 3236.828125 924.386719 3295.039062 923.449219 3403.019531 C 860.539062 3473.441406 947.839844 3555.171875 1021.101562 3584.230469 C 1105.128906 3617.558594 1179.621094 3614.480469 1228.601562 3594.089844 C 1315.449219 3557.941406 1284.941406 3493.148438 1284.941406 3493.148438 C 1288.691406 3370.148438 1325.308594 3264.050781 1381.648438 3092.941406 C 1437.980469 2921.828125 1605.109375 2708.25 1605.109375 2708.25 L 1014.839844 2717.601562 C 961.636719 2809.609375 1019.601562 3108.660156 1008.890625 3171.101562 "/>
<path fill-rule="nonzero" fill="rgb(80.859375%, 45.483398%, 10.594177%)" fill-opacity="1" d="M 1062.410156 2893.179688 L 1062.410156 2943.878906 C 1062.410156 2943.878906 1244.558594 2907.621094 1249.261719 2713.890625 L 1203.421875 2714.609375 C 1203.421875 2714.609375 1197.609375 2851.859375 1062.410156 2893.179688 "/>
<path fill-rule="nonzero" fill="rgb(80.859375%, 45.483398%, 10.594177%)" fill-opacity="1" d="M 1429.53125 2774.871094 C 1457.390625 2824.640625 1423.429688 2869.390625 1429.53125 2873.460938 C 1436.101562 2877.839844 1497.589844 2841.929688 1506.519531 2831.210938 C 1518.101562 2817.320312 1511.21875 2760.789062 1511.21875 2760.789062 L 1429.53125 2774.871094 "/>
<path fill-rule="nonzero" fill="rgb(80.859375%, 45.483398%, 10.594177%)" fill-opacity="1" d="M 1196.359375 3553.871094 C 1196.359375 3553.871094 1261.730469 3564.511719 1289.011719 3494.769531 L 1280.871094 3491.53125 C 1261.269531 3540.738281 1218.53125 3553.871094 1196.359375 3553.871094 "/>
<path fill-rule="nonzero" fill="rgb(86.71875%, 50.584412%, 14.892578%)" fill-opacity="1" d="M 1065.511719 2716.800781 L 1014.839844 2717.601562 C 961.636719 2809.609375 1019.601562 3108.660156 1008.890625 3171.101562 C 997.625 3236.828125 924.386719 3295.039062 923.449219 3403.019531 C 869.140625 3463.808594 926.777344 3533.03125 990.683594 3569.519531 C 943.636719 3381.890625 1096.210938 3254.671875 1082.601562 3092.941406 C 1077.460938 3031.949219 1069.480469 2792.539062 1065.511719 2716.800781 "/>
<path fill-rule="nonzero" fill="rgb(78.125%, 45.483398%, 13.330078%)" fill-opacity="1" d="M 1014.839844 2717.601562 C 961.636719 2809.609375 1019.601562 3108.660156 1008.890625 3171.101562 C 997.625 3236.828125 924.386719 3295.039062 923.449219 3403.019531 C 869.363281 3463.558594 926.3125 3532.460938 989.902344 3569.058594 C 987.21875 3564.519531 868.523438 3447.441406 946.921875 3417.101562 C 942.398438 3312.191406 1017.671875 3256.320312 1028.609375 3189.878906 C 1041.28125 3112.890625 986.355469 2803.980469 1032.621094 2717.320312 L 1014.839844 2717.601562 "/>
<path fill-rule="nonzero" fill="rgb(60.742188%, 36.473083%, 18.431091%)" fill-opacity="1" d="M 927.828125 3402.851562 L 919.070312 3403.179688 C 921.953125 3480.070312 965.726562 3492.019531 965.726562 3492.019531 C 965.371094 3491.851562 930.492188 3473.980469 927.828125 3402.851562 "/>
<g clip-path="url(#clip-8)">
<path fill-rule="nonzero" fill="rgb(99.609375%, 82.03125%, 65.429688%)" fill-opacity="1" d="M 2159.078125 1249.578125 C 2143.589844 1237.839844 2063.308594 1296.53125 2063.308594 1296.53125 C 2063.308594 1296.53125 2162.96875 1178.398438 2135.609375 1166.480469 C 2110.890625 1155.71875 2054.390625 1240.660156 2032.328125 1256.621094 C 2032.328125 1256.621094 2114.871094 1118.320312 2083.96875 1107.328125 C 2062.839844 1099.820312 2007.910156 1204.980469 1987.261719 1239.71875 C 1987.261719 1239.71875 2030.761719 1091.058594 1996.648438 1097 C 1972.089844 1101.28125 1915.589844 1271.019531 1915.589844 1271.019531 C 1882.71875 1184.578125 1807.410156 1189.109375 1829.519531 1233.148438 C 1851.621094 1277.191406 1845.480469 1311.078125 1848.109375 1329.859375 C 1850.738281 1348.640625 1879.390625 1371.871094 1879.390625 1371.871094 C 1738.179688 1466.941406 1687.738281 1690.878906 1687.738281 1690.878906 C 1636.570312 1714.820312 1578.339844 1776.789062 1578.339844 1776.789062 L 1724.828125 1916.21875 C 1724.828125 1916.21875 1817.78125 1830.308594 1879.390625 1716.230469 C 1940.988281 1602.148438 1975.050781 1443.46875 1975.050781 1443.46875 C 2039.839844 1399.339844 2179.511719 1265.058594 2159.078125 1249.578125 "/>
</g>
<path fill-rule="nonzero" fill="rgb(100%, 69.334412%, 56.443787%)" fill-opacity="1" d="M 1673.960938 1867.800781 L 1724.828125 1916.21875 C 1724.828125 1916.21875 1817.78125 1830.308594 1879.390625 1716.230469 C 1921.878906 1637.550781 1951.261719 1537.671875 1965.398438 1483.25 C 1912.140625 1609.660156 1862.378906 1719.101562 1764.730469 1816.21875 C 1738.21875 1842.589844 1686.339844 1864.179688 1673.960938 1867.800781 "/>
<g clip-path="url(#clip-9)">
<path fill-rule="nonzero" fill="rgb(100%, 69.334412%, 56.443787%)" fill-opacity="1" d="M 2159.078125 1249.578125 C 2152.429688 1244.539062 2133.808594 1252.5 2114.738281 1263.210938 C 2124.171875 1261.828125 2139.359375 1259.441406 2137.488281 1270.238281 C 2135.371094 1282.398438 2094.921875 1333.609375 2068 1365.988281 C 2122.601562 1314.738281 2171.78125 1259.199219 2159.078125 1249.578125 "/>
</g>
<path fill-rule="nonzero" fill="rgb(100%, 69.334412%, 56.443787%)" fill-opacity="1" d="M 1829.519531 1233.148438 C 1851.621094 1277.191406 1845.480469 1311.078125 1848.109375 1329.859375 C 1850.140625 1344.339844 1867.621094 1361.449219 1875.519531 1368.539062 C 1848.660156 1332.570312 1854.738281 1292.628906 1853.621094 1279.78125 C 1851.109375 1251.300781 1835.03125 1230.300781 1842.039062 1223.761719 C 1851.421875 1215 1885.851562 1227.519531 1900.390625 1241.019531 C 1864.261719 1186.519531 1810.378906 1195.019531 1829.519531 1233.148438 "/>
<path fill-rule="nonzero" fill="rgb(100%, 69.334412%, 56.443787%)" fill-opacity="1" d="M 1996.648438 1097 C 1987.859375 1098.539062 1974.96875 1121.269531 1962.050781 1149.828125 C 1974.738281 1131.429688 1986.980469 1117.71875 1996.328125 1122.820312 C 2009.460938 1129.980469 1985.550781 1237.238281 1987.300781 1239.589844 C 1988.699219 1234.738281 2030.191406 1091.160156 1996.648438 1097 "/>
<path fill-rule="nonzero" fill="rgb(100%, 69.334412%, 56.443787%)" fill-opacity="1" d="M 2083.96875 1107.328125 C 2074.429688 1103.941406 2058 1123.519531 2040.949219 1149.210938 C 2051.570312 1138.320312 2067.410156 1126.828125 2075.199219 1132.679688 C 2085.761719 1140.609375 2032.640625 1254.960938 2032.941406 1255.589844 C 2040.351562 1243.011719 2113.308594 1117.769531 2083.96875 1107.328125 "/>
<path fill-rule="nonzero" fill="rgb(100%, 69.334412%, 56.443787%)" fill-opacity="1" d="M 2135.609375 1166.480469 C 2125.269531 1161.980469 2109.378906 1174.21875 2092.769531 1191.140625 C 2097.628906 1189.128906 2113.308594 1181.269531 2119.328125 1188.078125 C 2129.730469 1199.839844 2078.328125 1271.648438 2063.921875 1295.789062 C 2072.210938 1285.878906 2161.710938 1177.851562 2135.609375 1166.480469 "/>
<path fill-rule="nonzero" fill="rgb(100%, 69.334412%, 56.443787%)" fill-opacity="1" d="M 1914.101562 1275.140625 C 1935.851562 1282.949219 1948.550781 1300.289062 1951.859375 1326.679688 C 1954.390625 1346.921875 1950.210938 1365.140625 1950.128906 1365.460938 L 1950.128906 1365.46875 C 1950.128906 1365.46875 1962.839844 1345.511719 1960.578125 1325.839844 C 1954.378906 1271.921875 1914.101562 1275.140625 1914.101562 1275.140625 "/>
<path fill-rule="nonzero" fill="rgb(100%, 69.334412%, 56.443787%)" fill-opacity="1" d="M 2031.191406 1268.679688 C 1989.699219 1235.570312 1948.328125 1250.761719 1948.328125 1250.761719 C 1948.53125 1250.730469 1969.050781 1248.5 1993.429688 1257.238281 C 2025.941406 1268.890625 2049.660156 1293.53125 2063.921875 1330.5 C 2063.921875 1330.5 2064.421875 1295.199219 2031.191406 1268.679688 "/>
<path fill-rule="nonzero" fill="rgb(23.535156%, 72.851562%, 87.889099%)" fill-opacity="1" d="M 1535.628906 1748.921875 C 1499.011719 1765.179688 1396.199219 1888.050781 1396.199219 1888.050781 L 1556.410156 2196.199219 C 1607.480469 2155.460938 1750.449219 1985.449219 1752.058594 1960.050781 C 1757.21875 1878.191406 1572.25 1732.660156 1535.628906 1748.921875 "/>
<path fill-rule="nonzero" fill="rgb(16.088867%, 55.664062%, 64.646912%)" fill-opacity="1" d="M 1704.480469 1923.730469 C 1677.101562 1992.738281 1609.179688 2043.128906 1534.691406 2054.089844 C 1517.238281 2057 1499.480469 2056.898438 1482.421875 2053.878906 L 1556.410156 2196.199219 C 1607.480469 2155.460938 1750.449219 1985.449219 1752.058594 1960.050781 C 1753.890625 1930.890625 1731.609375 1893.660156 1700.488281 1858.53125 C 1707.851562 1879.738281 1712.359375 1903.058594 1704.480469 1923.730469 "/>
<path fill-rule="nonzero" fill="rgb(8.227539%, 39.598083%, 46.655273%)" fill-opacity="1" d="M 1535.628906 1748.921875 C 1522.011719 1754.96875 1502.558594 1771.089844 1483.511719 1788.949219 C 1516.679688 1791.769531 1571.660156 1808 1636.101562 1872.558594 C 1697.75 1934.339844 1720.230469 1979.019531 1728 2006.660156 C 1742.121094 1986.308594 1751.488281 1969.039062 1752.058594 1960.050781 C 1757.21875 1878.191406 1572.25 1732.660156 1535.628906 1748.921875 "/>
<path fill-rule="nonzero" fill="rgb(6.272888%, 31.37207%, 35.693359%)" fill-opacity="1" d="M 1696.191406 1943.28125 C 1714.46875 1969.878906 1723.601562 1991 1728 2006.660156 C 1742.121094 1986.308594 1751.488281 1969.039062 1752.058594 1960.050781 C 1753.421875 1938.371094 1741.449219 1912.21875 1722.421875 1885.789062 C 1718.589844 1903.019531 1707.300781 1918.878906 1696.191406 1943.28125 "/>
<path fill-rule="nonzero" fill="rgb(23.535156%, 72.851562%, 87.889099%)" fill-opacity="1" d="M 1449.871094 1834.53125 C 1449.871094 1834.53125 1368.03125 1823.050781 1304.121094 1858.03125 C 1347.539062 1856.46875 1369.75 1941.421875 1259.300781 1956.359375 C 1132.851562 1973.46875 1139.390625 1895.679688 1139.390625 1895.679688 C 1139.390625 1895.679688 1007.949219 1952.679688 941.019531 2016.230469 C 941.019531 2016.230469 1180.320312 2183.660156 1009.429688 2454.070312 C 1009.429688 2454.070312 957.25 2695.058594 977.90625 2723.230469 C 998.5625 2751.398438 1156.300781 2820.878906 1398.550781 2790.828125 C 1640.789062 2760.789062 1734.679688 2665.960938 1739.449219 2644.671875 C 1747.601562 2608.300781 1657.691406 2233.109375 1610.75 2165.511719 C 1610.75 2165.511719 1420.460938 2036.089844 1449.871094 1834.53125 "/>
<path fill-rule="nonzero" fill="rgb(16.088867%, 55.664062%, 64.646912%)" fill-opacity="1" d="M 1490.410156 2032.339844 C 1600.191406 2220.121094 1706.519531 2554.21875 1659.390625 2625.511719 C 1572.921875 2756.308594 1138.78125 2798.21875 973.6875 2675.640625 C 972.261719 2699.058594 973.164062 2716.761719 977.90625 2723.230469 C 998.5625 2751.398438 1156.300781 2820.878906 1398.550781 2790.828125 C 1640.789062 2760.789062 1734.679688 2665.960938 1739.449219 2644.671875 C 1747.601562 2608.300781 1657.691406 2233.109375 1610.75 2165.511719 C 1610.75 2165.511719 1538.980469 2116.691406 1490.410156 2032.339844 "/>
<path fill-rule="nonzero" fill="rgb(18.431091%, 48.631287%, 35.301208%)" fill-opacity="1" d="M 969.769531 2567.371094 C 943.800781 2598.988281 954.753906 2641.671875 981.210938 2636.988281 C 1006.699219 2632.46875 1023.449219 2573.300781 1101.851562 2509.160156 C 1156.929688 2464.089844 1169.851562 2412.121094 1169.851562 2412.121094 L 1115.78125 2401.179688 C 1102.78125 2458.449219 1022.839844 2502.75 969.769531 2567.371094 "/>
<path fill-rule="nonzero" fill="rgb(12.547302%, 35.693359%, 24.705505%)" fill-opacity="1" d="M 1069.921875 2519.261719 C 1030.21875 2558.601562 1002.449219 2601.710938 992.652344 2607.429688 C 978.5625 2615.660156 973.070312 2628.089844 955.5625 2614.300781 C 957.980469 2629.148438 967.519531 2639.410156 981.210938 2636.988281 C 1006.699219 2632.46875 1023.449219 2573.300781 1101.851562 2509.160156 C 1156.929688 2464.089844 1169.851562 2412.121094 1169.851562 2412.121094 L 1148.960938 2407.898438 C 1148.78125 2456.789062 1101.101562 2488.371094 1069.921875 2519.261719 "/>
<path fill-rule="nonzero" fill="rgb(18.431091%, 48.631287%, 35.301208%)" fill-opacity="1" d="M 1627.648438 2258.460938 L 1684.980469 2375.808594 C 1702.019531 2302.871094 1656.148438 2179.140625 1656.148438 2179.140625 L 1627.648438 2258.460938 "/>
<path fill-rule="nonzero" fill="rgb(12.547302%, 35.693359%, 24.705505%)" fill-opacity="1" d="M 1656.148438 2179.140625 L 1627.648438 2258.460938 L 1684.980469 2375.808594 C 1679.761719 2345.308594 1657.378906 2300.558594 1649.710938 2275.359375 C 1668.960938 2191.171875 1656.148438 2179.140625 1656.148438 2179.140625 "/>
<path fill-rule="nonzero" fill="rgb(73.242188%, 88.28125%, 45.483398%)" fill-opacity="1" d="M 745.992188 2351.421875 C 728.847656 2371.769531 729.296875 2408.039062 725.648438 2449.460938 C 721.105469 2501.039062 715.128906 2557.171875 736.132812 2576.761719 C 767.679688 2606.179688 861.804688 2618.820312 881.523438 2609.898438 L 888.03125 2332.949219 C 888.03125 2332.949219 786.054688 2303.839844 745.992188 2351.421875 "/>
<path fill-rule="nonzero" fill="rgb(62.693787%, 74.804688%, 35.301208%)" fill-opacity="1" d="M 802.050781 2325.308594 C 803.375 2397.03125 804.816406 2526.371094 795.128906 2552.660156 C 786.902344 2574.980469 749.746094 2579.890625 729.5625 2567.949219 C 731.378906 2571.378906 733.550781 2574.351562 736.132812 2576.761719 C 767.679688 2606.179688 861.804688 2618.820312 881.523438 2609.898438 L 888.03125 2332.949219 C 888.03125 2332.949219 843.730469 2320.308594 802.050781 2325.308594 "/>
<path fill-rule="nonzero" fill="rgb(73.242188%, 88.28125%, 45.483398%)" fill-opacity="1" d="M 970.394531 2005.890625 C 930.960938 1917.628906 805.144531 1943.289062 788.867188 2002.761719 C 779.253906 2037.890625 796.691406 2206.351562 805.144531 2300.710938 C 813.59375 2395.070312 824.859375 2565.488281 826.269531 2633.089844 C 827.679688 2700.699219 960.066406 2717.601562 983.539062 2690.679688 C 1017.320312 2651.941406 1009.878906 2489.589844 1005.660156 2363.011719 C 1001.429688 2236.441406 1015 2105.71875 970.394531 2005.890625 "/>
<path fill-rule="nonzero" fill="rgb(62.693787%, 74.804688%, 35.301208%)" fill-opacity="1" d="M 970.394531 2005.890625 C 933.003906 1922.199219 817.972656 1940.941406 792.273438 1993.800781 C 845.59375 1953.570312 901.605469 1977.339844 920.683594 2000.261719 C 955.164062 2041.679688 966.871094 2193.109375 973.070312 2345.121094 C 979.109375 2493.191406 992.265625 2624.738281 960.453125 2655.960938 C 941.121094 2674.921875 866.011719 2685.929688 826.597656 2637.679688 C 833.75 2701.441406 960.609375 2716.980469 983.539062 2690.679688 C 1017.320312 2651.941406 1009.878906 2489.589844 1005.660156 2363.011719 C 1001.429688 2236.441406 1015 2105.71875 970.394531 2005.890625 "/>
<path fill-rule="nonzero" fill="rgb(18.431091%, 48.631287%, 35.301208%)" fill-opacity="1" d="M 818.488281 2479.109375 L 824.421875 2583.308594 C 830.027344 2608.210938 964.898438 2602.550781 971.183594 2588.488281 C 979.785156 2569.25 966.800781 2479.109375 966.800781 2479.109375 L 818.488281 2479.109375 "/>
<path fill-rule="nonzero" fill="rgb(12.547302%, 35.693359%, 24.705505%)" fill-opacity="1" d="M 958.503906 2479.109375 C 958.503906 2487.269531 966.015625 2558.609375 961.632812 2568.621094 C 956.8125 2579.640625 925.777344 2583.660156 898.550781 2584.269531 C 870.429688 2584.898438 834.25 2584.898438 822.972656 2557.828125 L 824.421875 2583.308594 C 830.027344 2608.210938 964.898438 2602.550781 971.183594 2588.488281 C 979.785156 2569.25 966.800781 2479.109375 966.800781 2479.109375 L 958.503906 2479.109375 "/>
<path fill-rule="nonzero" fill="rgb(8.227539%, 39.598083%, 46.655273%)" fill-opacity="1" d="M 1304.121094 1858.03125 C 1325.308594 1863.878906 1369.75 1941.421875 1259.300781 1956.359375 C 1132.851562 1973.46875 1139.390625 1895.679688 1139.390625 1895.679688 C 1139.390625 1895.679688 1111.390625 1907.820312 1074.660156 1927.140625 C 1081.21875 1941.140625 1096.390625 1964.601562 1130.640625 1989.609375 C 1177.660156 2023.960938 1311.539062 2036.578125 1371.628906 1964.578125 C 1423.921875 1901.921875 1382.660156 1850.789062 1368.839844 1836.640625 C 1347.660156 1840.171875 1324.941406 1846.640625 1304.121094 1858.03125 "/>
<path fill-rule="nonzero" fill="rgb(6.272888%, 31.37207%, 35.693359%)" fill-opacity="1" d="M 1304.121094 1858.03125 C 1317.058594 1861.601562 1338.671875 1891.910156 1328.378906 1918.371094 C 1397.378906 1945.328125 1321.558594 1993.679688 1243.621094 1996.5 C 1195.300781 1998.25 1125.789062 1981.480469 1091.261719 1918.589844 C 1085.988281 1921.25 1080.441406 1924.109375 1074.660156 1927.140625 C 1081.21875 1941.140625 1096.390625 1964.601562 1130.640625 1989.609375 C 1177.660156 2023.960938 1311.539062 2036.578125 1371.628906 1964.578125 C 1423.921875 1901.921875 1382.660156 1850.789062 1368.839844 1836.640625 C 1347.660156 1840.171875 1324.941406 1846.640625 1304.121094 1858.03125 "/>
<path fill-rule="nonzero" fill="rgb(23.535156%, 72.851562%, 87.889099%)" fill-opacity="1" d="M 962.113281 1990.769531 C 932.175781 2007.480469 805.144531 2189.449219 784.019531 2250.011719 C 762.890625 2310.570312 878.691406 2427.160156 977.28125 2447.808594 C 1075.871094 2468.46875 1119.691406 2288.511719 1119.691406 2288.511719 C 1119.691406 2288.511719 1132.828125 2195.550781 1060.53125 2089.449219 C 1004.238281 2006.839844 962.113281 1990.769531 962.113281 1990.769531 "/>
<path fill-rule="nonzero" fill="rgb(16.088867%, 55.664062%, 64.646912%)" fill-opacity="1" d="M 938.054688 2303.851562 C 869.683594 2249.980469 818.136719 2240.089844 787.519531 2240.960938 C 786.171875 2244.171875 785 2247.199219 784.019531 2250.011719 C 762.890625 2310.570312 878.691406 2427.160156 977.28125 2447.808594 C 1005.761719 2453.78125 1027.160156 2441.421875 1046.761719 2423.089844 C 1034.261719 2389.128906 999.796875 2352.5 938.054688 2303.851562 "/>
<path fill-rule="nonzero" fill="rgb(8.227539%, 39.598083%, 46.655273%)" fill-opacity="1" d="M 962.882812 2285.691406 C 893.679688 2226.511719 834.050781 2209.238281 805.761719 2204.199219 C 795.902344 2222.089844 788.210938 2238 784.019531 2250.011719 C 783.203125 2252.351562 782.617188 2254.769531 782.199219 2257.269531 C 809.941406 2258.78125 855.414062 2271.5 920.320312 2320.738281 C 984.167969 2369.179688 1010.859375 2412.71875 1021.800781 2443.289062 C 1037.058594 2431.539062 1047.679688 2421.121094 1059.171875 2407.320312 C 1047.648438 2372.070312 1018.679688 2333.410156 962.882812 2285.691406 "/>
<path fill-rule="nonzero" fill="rgb(6.272888%, 31.37207%, 35.693359%)" fill-opacity="1" d="M 962.882812 2285.691406 C 955.503906 2279.378906 948.238281 2273.570312 941.097656 2268.171875 C 935.96875 2298.210938 899.035156 2292.890625 851.925781 2277.710938 C 871.71875 2287.328125 894.472656 2301.128906 920.320312 2320.738281 C 984.167969 2369.179688 1010.859375 2412.71875 1021.800781 2443.289062 C 1037.058594 2432.808594 1047.679688 2421.121094 1059.171875 2407.320312 C 1047.648438 2372.070312 1018.679688 2333.410156 962.882812 2285.691406 "/>
<path fill-rule="nonzero" fill="rgb(73.242188%, 88.28125%, 45.483398%)" fill-opacity="1" d="M 1086.171875 1911.058594 C 1032.828125 1886.179688 947.484375 1951.628906 962.113281 1990.769531 C 979.785156 2038.050781 1039.25 2065.980469 1068.980469 2142.96875 C 1094.960938 2210.230469 1096.371094 2377.480469 1103.101562 2407.75 C 1107.480469 2427.46875 1169.140625 2441.550781 1196.460938 2417.839844 C 1221.230469 2396.339844 1228.910156 2375.828125 1219.519531 2229.351562 C 1210.128906 2082.878906 1132.078125 1932.46875 1086.171875 1911.058594 "/>
<path fill-rule="nonzero" fill="rgb(62.693787%, 74.804688%, 35.301208%)" fill-opacity="1" d="M 1115.78125 2382.089844 C 1110.789062 2357.179688 1102.46875 2204.199219 1083.691406 2135.460938 C 1068.789062 2080.910156 998.980469 2016.359375 988.703125 2003.539062 C 964.363281 1973.179688 995.613281 1932.261719 1003.28125 1923.851562 C 974.609375 1942.011719 954.375 1970.070312 962.113281 1990.769531 C 979.785156 2038.050781 1039.25 2065.980469 1068.980469 2142.96875 C 1094.960938 2210.230469 1096.371094 2377.480469 1103.101562 2407.75 C 1107.480469 2427.46875 1169.140625 2441.550781 1196.460938 2417.839844 C 1207.25 2408.480469 1214.789062 2399.300781 1219.101562 2379.820312 C 1201.679688 2430.269531 1126.421875 2435.28125 1115.78125 2382.089844 "/>
<path fill-rule="nonzero" fill="rgb(62.693787%, 74.804688%, 35.301208%)" fill-opacity="1" d="M 1131.050781 2065.070312 C 1100.828125 2000.289062 1058.671875 1971.488281 1058.671875 1971.488281 C 1059.011719 1971.820312 1093.570312 2005.460938 1123.109375 2068.769531 C 1150.421875 2127.328125 1178.75 2223.78125 1158.550781 2350.730469 C 1158.550781 2350.730469 1183.851562 2285.691406 1168.03125 2186.289062 C 1161.269531 2143.820312 1148.769531 2103.050781 1131.050781 2065.070312 "/>
<path fill-rule="nonzero" fill="rgb(73.242188%, 88.28125%, 45.483398%)" fill-opacity="1" d="M 1437.980469 1835 C 1375.441406 1803.238281 1307.738281 1835.441406 1304.121094 1858.03125 C 1297.621094 1898.640625 1404.609375 1944.949219 1473.820312 2036.25 C 1537.039062 2119.660156 1627.648438 2258.460938 1627.648438 2258.460938 C 1683.980469 2214.328125 1655.359375 2124.039062 1601.980469 2030.609375 C 1550.421875 1940.378906 1499.089844 1866.039062 1437.980469 1835 "/>
<path fill-rule="nonzero" fill="rgb(62.693787%, 74.804688%, 35.301208%)" fill-opacity="1" d="M 1627.648438 2227.320312 C 1604.800781 2195.390625 1568.179688 2125.988281 1491.808594 2030.929688 C 1423.769531 1946.21875 1334.609375 1881.679688 1329.070312 1865.050781 C 1323.429688 1848.148438 1332.820312 1839.378906 1383.191406 1821.710938 C 1341.140625 1821.371094 1306.671875 1842.089844 1304.121094 1858.03125 C 1297.621094 1898.640625 1404.609375 1944.949219 1473.820312 2036.25 C 1537.039062 2119.660156 1627.648438 2258.460938 1627.648438 2258.460938 C 1659.109375 2233.808594 1662.878906 2195.941406 1652.308594 2149.519531 C 1655.5 2181.160156 1649.871094 2203.21875 1627.648438 2227.320312 "/>
<path fill-rule="nonzero" fill="rgb(62.693787%, 74.804688%, 35.301208%)" fill-opacity="1" d="M 1477.25 1923.21875 C 1423.328125 1876.289062 1373.109375 1867.089844 1373.109375 1867.089844 C 1373.558594 1867.25 1418.800781 1883.960938 1471.5 1929.828125 C 1520.230469 1972.25 1585.28125 2048.890625 1618.371094 2173.101562 C 1618.371094 2173.101562 1615.078125 2103.398438 1560.269531 2018.980469 C 1536.851562 1982.921875 1508.859375 1950.730469 1477.25 1923.21875 "/>
<path fill-rule="nonzero" fill="rgb(99.609375%, 82.03125%, 65.429688%)" fill-opacity="1" d="M 1251.609375 2150.839844 C 1251.609375 2150.839844 1265.21875 2114.328125 1219.210938 2099.308594 C 1219.210938 2099.308594 1221.789062 2068.089844 1193.160156 2061.75 C 1169.578125 2056.539062 1143.308594 2062.691406 1119.839844 2081.46875 C 1100.921875 2096.609375 1078.351562 2125.269531 1072.898438 2146.101562 C 1072.898438 2146.101562 1065.460938 2132.410156 1057.878906 2118.679688 C 1055.941406 2118.078125 1038.03125 2124.648438 1042.691406 2159.871094 C 1045.511719 2181.160156 1066.789062 2196.199219 1066.789062 2196.199219 C 1066.789062 2196.199219 960.558594 2273.410156 914 2315.480469 C 914 2315.480469 868.777344 2281.96875 836.320312 2270.699219 C 836.320312 2270.699219 793.878906 2319.488281 769.933594 2404.929688 C 743.4375 2499.488281 807.925781 2569.25 921.953125 2520.421875 C 1045.550781 2467.5 1122.5 2319.488281 1136.589844 2302.589844 C 1136.589844 2302.589844 1160.429688 2300.339844 1188.230469 2272.539062 C 1202.308594 2258.460938 1219.519531 2229.351562 1219.519531 2229.351562 C 1219.519531 2229.351562 1223.390625 2243.75 1233.449219 2247.039062 C 1248.941406 2252.101562 1264.910156 2227.320312 1253.011719 2196.488281 C 1253.011719 2196.488281 1274.140625 2182.410156 1251.609375 2150.839844 "/>
<path fill-rule="nonzero" fill="rgb(100%, 69.334412%, 56.443787%)" fill-opacity="1" d="M 795.753906 2496.640625 C 750.945312 2449.808594 818.488281 2307.601562 857.300781 2279.910156 C 850.105469 2276.230469 842.949219 2273 836.320312 2270.699219 C 836.320312 2270.699219 793.878906 2319.488281 769.933594 2404.929688 C 743.4375 2499.488281 807.925781 2569.25 921.953125 2520.421875 C 990.03125 2491.269531 1043.949219 2433.28125 1081.011719 2384.230469 C 951.058594 2527.929688 837.066406 2539.808594 795.753906 2496.640625 "/>
<path fill-rule="nonzero" fill="rgb(100%, 69.334412%, 56.443787%)" fill-opacity="1" d="M 1178.601562 2087.808594 C 1153.441406 2091.21875 1138.78125 2113.121094 1138.78125 2113.121094 C 1139.101562 2112.878906 1173.019531 2085.539062 1220.339844 2099.691406 C 1220.339844 2099.691406 1206.300781 2084.050781 1178.601562 2087.808594 "/>
<path fill-rule="nonzero" fill="rgb(100%, 69.334412%, 56.443787%)" fill-opacity="1" d="M 1188.539062 2125.988281 C 1167.660156 2132.078125 1151.75 2149.210938 1151.75 2149.210938 C 1152.378906 2148.878906 1212.328125 2114.800781 1251.609375 2150.839844 C 1251.609375 2150.839844 1232.671875 2113.121094 1188.539062 2125.988281 "/>
<path fill-rule="nonzero" fill="rgb(100%, 69.334412%, 56.443787%)" fill-opacity="1" d="M 1215.171875 2172.78125 C 1198.078125 2174.101562 1177.328125 2188.289062 1177.328125 2188.289062 C 1177.839844 2188.058594 1232.769531 2163.589844 1253.011719 2196.488281 C 1253.011719 2196.488281 1251.609375 2169.96875 1215.171875 2172.78125 "/>
<path fill-rule="nonzero" fill="rgb(100%, 69.334412%, 56.443787%)" fill-opacity="1" d="M 1224.488281 2217.730469 C 1220.050781 2221.171875 1219.519531 2229.351562 1219.519531 2229.351562 C 1225.671875 2213.511719 1237.871094 2217.269531 1241.75 2219.109375 C 1241.75 2219.109375 1232.828125 2211.28125 1224.488281 2217.730469 "/>
<path fill-rule="nonzero" fill="rgb(80.076599%, 55.664062%, 45.092773%)" fill-opacity="1" d="M 833.535156 2394.128906 C 833.535156 2394.128906 880.445312 2346.800781 914.066406 2315.390625 L 906.808594 2310.179688 C 882.019531 2336.230469 833.535156 2394.128906 833.535156 2394.128906 "/>
<path fill-rule="nonzero" fill="rgb(10.205078%, 10.205078%, 10.205078%)" fill-opacity="1" d="M 1068.601562 1309.398438 C 1068.601562 1309.398438 1026.808594 1199.710938 930.835938 1226.289062 C 847.265625 1249.429688 848.988281 1345.511719 878.707031 1385.570312 C 855.40625 1369.609375 816.835938 1243.429688 928.90625 1210.859375 C 996.789062 1191.128906 1055.839844 1254 1068.601562 1309.398438 "/>
<path fill-rule="nonzero" fill="rgb(10.205078%, 10.205078%, 10.205078%)" fill-opacity="1" d="M 1407.140625 1231.378906 C 1407.140625 1231.378906 1439.789062 1146.78125 1521.230469 1162.429688 C 1602.679688 1178.078125 1599.578125 1266.53125 1597.621094 1274.308594 C 1607.621094 1249.738281 1602.890625 1167.441406 1525.21875 1149.878906 C 1446.648438 1132.121094 1411.308594 1205.109375 1407.140625 1231.378906 "/>
</svg>
